<svg xmlns="http://www.w3.org/2000/svg" viewBox="0 0 2255.43 1171.55"><defs><style>.cls-1{fill:#283689;}.cls-2{fill:#505aba;}.cls-3{fill:#2b478b;}.cls-4{fill:#778de8;}.cls-5{fill:#e27227;}.cls-6{fill:#1c3870;}.cls-7{fill:#8c9df4;}.cls-8{fill:#1b376d;}.cls-9{fill:#f99746;}.cls-10{opacity:0.7;}.cls-11{fill:#d86713;}.cls-12{fill:#a8d29f;}.cls-13{fill:#82b378;}.cls-14{opacity:0.1;}.cls-15{fill:#dde7fe;}.cls-16{fill:#ebf2f9;}.cls-17{fill:#d5e5fb;}.cls-18{fill:#e2eefd;}.cls-19{fill:#9db0f4;}.cls-20{fill:#afcdfb;}.cls-21{fill:#aec3ff;}.cls-22{fill:#819dea;}.cls-23{fill:#c5d7ff;}.cls-24{fill:#d36d1a;}.cls-25{fill:#f49540;}.cls-26{fill:#ffa255;}.cls-27{fill:#f8fcff;}.cls-28{opacity:0.5;}.cls-29{fill:#ed7d2b;}.cls-30{fill:#131375;}.cls-31{fill:#060633;}.cls-32{fill:#829ce8;}.cls-33{fill:#ed975d;}.cls-34{fill:#ffb27d;}.cls-35{fill:#a9453d;}.cls-36{fill:#7a96e5;}.cls-37{fill:#233862;}.cls-38{fill:#ef873a;}.cls-39{fill:#f77d48;}.cls-40{fill:#15156d;}.cls-41{fill:#fa7267;}.cls-42{fill:#17152b;}.cls-43{opacity:0.3;}.cls-44{fill:#ea9963;}.cls-45{fill:#6980e2;}.cls-46{fill:#9fb1ff;}.cls-47{fill:#182d4c;}.cls-48{fill:#ffb583;}.cls-49{fill:#ea6c2d;}.cls-50{fill:#95c38b;}.cls-51{fill:#b5453c;}.cls-52{fill:#efcbab;}.cls-53{fill:#699dee;}.cls-54{fill:#548ee2;}</style></defs><title>kaartjeMiddel 2</title><g id="Laag_2" data-name="Laag 2"><g id="_Layer_" data-name="&lt;Layer&gt;"><path class="cls-1" d="M707.45,778.64l-4.74-.61a50.36,50.36,0,0,1,22.78-33.57c17.55-11.1,11.56-45.8,11.49-46.15l4.71-.84a91.17,91.17,0,0,1,.92,20.35c-1,14.7-6.07,25.31-14.56,30.68A46.14,46.14,0,0,0,707.45,778.64Z"/><path class="cls-1" d="M738,779.48c-.12-.22-11.64-21.86,9.15-35,17.17-10.86,1.93-44.59,1.77-44.93l4.35-2a87.61,87.61,0,0,1,6,20.05c2.43,14.72-.89,25.42-9.59,30.92-17,10.79-7.91,28-7.51,28.68Z"/><polygon class="cls-2" points="1732.47 1019.75 374.49 1019.75 511.36 880.33 1613.19 880.33 1732.47 1019.75"/><rect class="cls-3" x="374.49" y="1019.75" width="1357.98" height="17.81"/><rect class="cls-3" x="519.19" y="909.57" width="1082.34" height="4.75"/><rect class="cls-3" x="482.5" y="938.7" width="1148.06" height="4.76"/><rect class="cls-3" x="451.92" y="970.89" width="1209.21" height="4.75"/><rect class="cls-3" x="524.67" y="888.1" width="48.93" height="14.68"/><rect class="cls-3" x="899.51" y="888.1" width="48.94" height="14.68"/><rect class="cls-3" x="978.21" y="888.1" width="48.94" height="14.68"/><rect class="cls-3" x="1187.42" y="888.1" width="48.93" height="14.68"/><rect class="cls-3" x="1260.19" y="888.1" width="48.94" height="14.68"/><rect class="cls-3" x="1338.89" y="888.1" width="48.93" height="14.68"/><path class="cls-3" d="M2237.26,778.33h-9.61c-21.69-31.71-40.49-33.18-76.93-36-11.21-.86-23.92-1.85-38.8-3.86-33.19-4.46-44.1-22.27-56.73-42.9-5.72-9.34-11.62-19-20.25-28.75-26.49-30-86-21.22-86.64-21.13l-1.23-7.92c2.62-.4,64.47-9.53,93.87,23.74,9.09,10.29,15.47,20.7,21.09,29.88,12.5,20.43,21.54,35.18,51,39.14,14.65,2,27.24,3,38.34,3.81C2191,737.41,2212.18,739.05,2237.26,778.33Z"/><rect class="cls-4" x="1708.43" y="594.76" width="238.64" height="238.64" rx="29.46"/><path class="cls-5" d="M1909.56,708.71a81.77,81.77,0,0,1-1,12.6c-.15,1-.32,2-.52,3a81,81,0,0,1-6.67,20.09c-.29.61-.59,1.21-.9,1.79a82.1,82.1,0,0,1-21.83,26.62c-.49.39-1,.78-1.48,1.15a81.3,81.3,0,0,1-31.6,14.71h0l-2.11.45h0a78.48,78.48,0,0,1-9,1.24c-1,.09-2,.16-3,.19h0c-1.26.07-2.52.1-3.79.1a81.8,81.8,0,0,1-25-3.9c-1.23-.39-2.44-.8-3.65-1.26a77,77,0,0,1-8.21-3.6L1789,781a82.25,82.25,0,0,1-28.51-25.35c-.36-.52-.72-1-1.08-1.56a82,82,0,0,1-11.17-25.16c-.31-1.24-.6-2.49-.85-3.76a80.06,80.06,0,0,1-1.35-9.37c-.07-.79-.13-1.57-.17-2.36v0c-.08-1.55-.13-3.1-.13-4.67a82.27,82.27,0,0,1,3.7-24.45c.22-.67.44-1.36.68-2a81.76,81.76,0,0,1,18.05-29.83c.44-.45.86-.91,1.32-1.34a81.66,81.66,0,0,1,28.8-18.83c.63-.25,1.25-.47,1.89-.7a82.53,82.53,0,0,1,41-3.61c.78.13,1.55.26,2.33.43.55.1,1.1.21,1.65.34,1.08.23,2.16.48,3.22.77a81.53,81.53,0,0,1,31.73,16.35c.49.4,1,.8,1.44,1.23a81.82,81.82,0,0,1,22.1,31.1c.27.61.51,1.22.73,1.85a80.24,80.24,0,0,1,4.31,16.71c.16,1.08.3,2.17.4,3.26h0A81.74,81.74,0,0,1,1909.56,708.71Z"/><path class="cls-6" d="M1878.67,772.79c-.49.39-1,.78-1.48,1.15l-10.91-12.16-1.25-1.39-22.42-25-1.25-1.39L1816,705.77l-1.25-1.39-25-27.87-1.25-1.4-20.39-22.72c.44-.45.86-.91,1.32-1.34l20.46,22.82,1.25,1.39,25,27.87,1.25,1.39,25.32,28.22,1.25,1.39,22.43,25,1.24,1.39Z"/><path class="cls-6" d="M1901.4,744.38c-.29.61-.59,1.21-.9,1.79l-7.5-8.36-1.25-1.39-22.42-25-1.26-1.39-25.31-28.22-1.25-1.39-25-27.88-1.24-1.39-17-18.93c.63-.25,1.25-.47,1.89-.7l16.49,18.39,1.25,1.39,25,27.87,1.25,1.38,25.31,28.22,1.26,1.4,22.42,25,1.25,1.39Z"/><path class="cls-6" d="M1908.68,696.69c.16,1.08.3,2.17.4,3.26l-12-13.41-1.24-1.39-25.33-28.23-1.24-1.39-24.1-26.85c1.08.23,2.16.48,3.22.77l22.27,24.83,1.25,1.39,25.32,28.23,1.24,1.39Z"/><path class="cls-6" d="M1845.58,788.65l-2.11.45h0l-3.41-3.81-1.24-1.39-22.43-25-1.25-1.39-25.3-28.22-1.25-1.4-25-27.86-1.26-1.4-12.89-14.37c.22-.67.44-1.36.68-2l13.6,15.17,1.26,1.39,25,27.87,1.24,1.39,25.32,28.22,1.24,1.39,22.43,25,1.26,1.39Z"/><path class="cls-6" d="M1843.5,628.34l-25.59,23-1.4,1.24-25.32,22.72-1.39,1.25L1765,698.78l-1.39,1.25L1746,715.76c-.07-.79-.13-1.57-.17-2.36v0l16.46-14.75,1.39-1.24,24.84-22.28,1.39-1.24,25.33-22.72,1.39-1.24,24.51-22C1842,628,1842.72,628.17,1843.5,628.34Z"/><path class="cls-6" d="M1881.54,647l-9.65,8.64-1.4,1.25-26.34,23.63-1.39,1.26-25.33,22.71-1.39,1.25L1791.21,728l-1.38,1.25-21.47,19.24-1.39,1.25-6.49,5.83c-.36-.52-.72-1-1.08-1.56l6.33-5.66,1.39-1.25,21.46-19.25,1.39-1.24,24.82-22.27,1.39-1.25,25.33-22.71,1.39-1.25,26.35-23.64,1.39-1.25,9.46-8.48C1880.59,646.2,1881.06,646.6,1881.54,647Z"/><path class="cls-6" d="M1904.37,680l-5.92,5.31-1.39,1.25-26.34,23.63-1.39,1.25L1844,734.13l-1.39,1.25-24.84,22.27-1.39,1.25-21.45,19.24-1.39,1.25-2.77,2.48L1789,781l3.29-3,1.39-1.25,21.46-19.24,1.4-1.25L1841.36,734l1.39-1.25L1868.07,710l1.39-1.26,26.36-23.62,1.39-1.25,6.43-5.77C1903.91,678.74,1904.15,679.35,1904.37,680Z"/><path class="cls-6" d="M1908.59,721.31c-.15,1-.32,2-.52,3l-13.68,12.28-1.39,1.24-25.33,22.72-1.39,1.25-24.82,22.27-1.41,1.24-5.62,5.05c-1,.09-2,.16-3,.19l7.37-6.63,1.39-1.24L1865,760.39l1.4-1.25,25.32-22.72,1.39-1.24Z"/><path class="cls-6" d="M1802.63,786.73c-1.23-.39-2.44-.8-3.65-1.26l-5.44-6.08-1.26-1.39L1767,749.78l-1.24-1.39-17.5-19.5c-.31-1.24-.6-2.49-.85-3.76l19.74,22,1.24,1.39,25.31,28.22,1.26,1.39Z"/><rect class="cls-7" x="1708.43" y="356.88" width="238.64" height="238.64" rx="29.46"/><path class="cls-5" d="M1909.56,470.84a81.87,81.87,0,0,1-1,12.6c-.15,1-.32,2-.52,3a81.23,81.23,0,0,1-6.67,20.09c-.29.6-.59,1.2-.9,1.79a82.31,82.31,0,0,1-21.83,26.62l-1.48,1.15a81.28,81.28,0,0,1-31.6,14.7h0l-2.11.45h0a78.48,78.48,0,0,1-9,1.24c-1,.09-2,.17-3,.19h0c-1.26.08-2.52.1-3.79.1a81.8,81.8,0,0,1-25-3.89c-1.23-.39-2.44-.81-3.65-1.27a76.94,76.94,0,0,1-8.21-3.59c-.6-.3-1.19-.61-1.78-.92a82.25,82.25,0,0,1-28.51-25.35l-1.08-1.55A81.91,81.91,0,0,1,1748.23,491c-.31-1.24-.6-2.49-.85-3.75a80.37,80.37,0,0,1-1.35-9.37c-.07-.79-.13-1.58-.17-2.37h0c-.08-1.55-.13-3.11-.13-4.67a82.23,82.23,0,0,1,3.7-24.45c.22-.68.44-1.37.68-2.05a81.84,81.84,0,0,1,18.05-29.83c.44-.45.86-.9,1.32-1.34a81.66,81.66,0,0,1,28.8-18.83c.63-.25,1.25-.47,1.89-.7a82.29,82.29,0,0,1,41-3.6c.78.12,1.55.26,2.33.42.55.1,1.1.21,1.65.34,1.08.24,2.16.49,3.22.78a81.38,81.38,0,0,1,31.73,16.34c.49.4,1,.8,1.44,1.23a81.9,81.9,0,0,1,22.1,31.1c.27.61.51,1.23.73,1.85a80.4,80.4,0,0,1,4.31,16.71c.16,1.08.3,2.17.4,3.26h0A81.79,81.79,0,0,1,1909.56,470.84Z"/><path class="cls-6" d="M1878.67,534.92l-1.48,1.15-10.91-12.16-1.25-1.4-22.42-25-1.25-1.39L1816,467.89l-1.25-1.39-25-27.87-1.25-1.4-20.39-22.72c.44-.45.86-.9,1.32-1.34L1789.94,436l1.25,1.39,25,27.87,1.25,1.39,25.32,28.22,1.25,1.39,22.43,25,1.24,1.39Z"/><path class="cls-6" d="M1901.4,506.51c-.29.6-.59,1.2-.9,1.79l-7.5-8.37-1.25-1.39-22.42-25-1.26-1.39-25.31-28.22-1.25-1.39-25-27.88-1.24-1.39-17-18.93c.63-.25,1.25-.47,1.89-.7L1816.66,412l1.25,1.39,25,27.87,1.25,1.39,25.31,28.22,1.26,1.39,22.42,25,1.25,1.39Z"/><path class="cls-6" d="M1908.68,458.81c.16,1.08.3,2.17.4,3.26l-12-13.4-1.24-1.39L1870.49,419l-1.24-1.39-24.1-26.85c1.08.24,2.16.49,3.22.78l22.27,24.82,1.25,1.39L1897.21,446l1.24,1.39Z"/><path class="cls-6" d="M1845.58,550.77l-2.11.45h0l-3.41-3.8-1.24-1.4-22.43-25-1.25-1.39-25.3-28.21-1.25-1.41-25-27.85-1.26-1.41-12.89-14.36c.22-.68.44-1.37.68-2.05l13.6,15.17,1.26,1.39,25,27.87,1.24,1.39,25.32,28.22,1.24,1.39,22.43,25,1.26,1.38Z"/><path class="cls-6" d="M1843.5,390.46l-25.59,23-1.4,1.24-25.32,22.72-1.39,1.25L1765,460.9l-1.39,1.26L1746,477.89c-.07-.79-.13-1.58-.17-2.37h0l16.46-14.76,1.39-1.24,24.84-22.28,1.39-1.24,25.33-22.72,1.39-1.24,24.51-22C1842,390.16,1842.72,390.3,1843.5,390.46Z"/><path class="cls-6" d="M1881.54,409.15l-9.65,8.64-1.4,1.25-26.34,23.64-1.39,1.25-25.33,22.71-1.39,1.25-24.83,22.27-1.38,1.26-21.47,19.23-1.39,1.26-6.49,5.82-1.08-1.55,6.33-5.66,1.39-1.26L1788.58,490l1.39-1.24,24.82-22.27,1.39-1.25,25.33-22.71,1.39-1.25,26.35-23.64,1.39-1.25,9.46-8.48C1880.59,408.32,1881.06,408.72,1881.54,409.15Z"/><path class="cls-6" d="M1904.37,442.1l-5.92,5.31-1.39,1.26-26.34,23.62-1.39,1.25L1844,496.25l-1.39,1.25-24.84,22.27-1.39,1.25-21.45,19.24-1.39,1.26-2.77,2.48c-.6-.3-1.19-.61-1.78-.92l3.29-3,1.39-1.26,21.46-19.24,1.4-1.25,24.83-22.27,1.39-1.25,25.32-22.71,1.39-1.25,26.36-23.62,1.39-1.26,6.43-5.77C1903.91,440.86,1904.15,441.48,1904.37,442.1Z"/><path class="cls-6" d="M1908.59,483.44c-.15,1-.32,2-.52,3l-13.68,12.27-1.39,1.24-25.33,22.72-1.39,1.26-24.82,22.26-1.41,1.25-5.62,5c-1,.09-2,.17-3,.19l7.37-6.63,1.39-1.23L1865,522.51l1.4-1.25,25.32-22.72,1.39-1.24Z"/><path class="cls-6" d="M1802.63,548.86c-1.23-.39-2.44-.81-3.65-1.27l-5.44-6.07-1.26-1.39L1767,511.91l-1.24-1.39L1748.23,491c-.31-1.24-.6-2.49-.85-3.75l19.74,22,1.24,1.39,25.31,28.22,1.26,1.39Z"/><path class="cls-8" d="M1859.9,985.64l126.59-113.9c5.16-4.64,19.24-7.83,31.46-7.12l162.4,9.39c12.22.71,17.93,5,12.77,9.69L2066.53,997.6c-5.16,4.64-19.24,7.83-31.45,7.12l-162.41-9.39C1860.46,994.62,1854.74,990.28,1859.9,985.64Z"/><polygon class="cls-8" points="2195.02 878.34 2195.02 864.52 1861.14 971.92 1858.26 974.9 1858 989.53 2005.51 994.35 2195.02 878.34"/><path class="cls-2" d="M2015.64,850.33l159.64,9.24c12.81.74,18.81,5.29,13.4,10.16l-119,107.06c-7.79,7-29.06,11.83-47.5,10.76l-143-8.27c-13.58-.79-19.94-5.61-14.2-10.77l124.84-112.32C1994,852.37,2005.59,849.75,2015.64,850.33Z"/><path class="cls-3" d="M2195,864.54c-.54-3-5.94-5.3-14.61-5.81L2018,849.33c-12.22-.71-26.29,2.49-31.45,7.12L1859.9,970.34c-1.77,1.6-2.27,3.17-1.64,4.56h0c.88,1.94,3.91,3.54,8.63,4.45h0a47.11,47.11,0,0,0,5.77.69l142.72,8.26h0l19.68,1.13c12.21.71,26.3-2.48,31.44-7.12l88-79.18h0l31.59-28.42,7-6.29A4.74,4.74,0,0,0,2195,865,2.73,2.73,0,0,0,2195,864.54Zm-7.45,3.54-6.64,6h0L2136,914.49l-.07.06-73.28,65.91h0l-1.38,1.25h0l-.29.26c-3.85,3.47-14.36,5.84-23.47,5.31l-.66,0h0l-18-1L1875,977.91a30.66,30.66,0,0,1-5.64-.82c-5.06-1.26-6.84-3.76-3.9-6.42l.28-.24,0,0,1.39-1.25,124.9-112.39c3.85-3.45,14.38-5.83,23.5-5.31L2178,860.85c7.75.45,12,2.86,10.73,5.7A4.46,4.46,0,0,1,2187.52,868.08Z"/><path class="cls-3" d="M1870.16,978.76l165.3,9.56c11.11.64,23.91-2.26,28.61-6.48l1.35-1.21-201-11.63-3.25,2.92C1857.5,975.2,1861.53,978.26,1870.16,978.76Z"/><path class="cls-8" d="M2255.43,1082.93l-1.19,2.67c-.81,1.78-1.6,3.53-2.4,5.25-30.54-.26-69.38,2.39-109.77,5.15-104.45,7.13-212.45,14.5-246.92-19-11.41-11.1-15.49-22.84-12.16-34.93,5.21-18.88,27.55-34.31,44.43-43.58h0c4.72-2.6,9-4.72,12.41-6.28h0c4.13-1.92,6.9-3,7.38-3.22l2.33,3.53,2.34,3.55c-.13,0-3.09,1.24-7.63,3.4-14.62,6.91-45.59,23.73-51.26,44.29-2.69,9.77.6,19,10.11,28.25,31.06,30.18,141.05,22.67,238.07,16C2183.28,1085.18,2223.73,1082.43,2255.43,1082.93Z"/><rect class="cls-9" x="454.41" width="1198.14" height="703.38"/><rect class="cls-1" x="454.41" width="1198.14" height="591.01"/><path class="cls-9" d="M1210.28,818v17.09H858.48V818a47.23,47.23,0,0,0,47.1-43.55c.09-1.22.14-2.45.14-3.69V703.38H1163v67.34c0,1.24,0,2.47.14,3.69a47.22,47.22,0,0,0,47.1,43.55Z"/><g class="cls-10"><rect class="cls-11" x="905.72" y="703.38" width="257.32" height="14.07"/></g><g class="cls-10"><path class="cls-11" d="M1210.28,818H858.48a47.23,47.23,0,0,0,47.1-43.55h257.6a47.22,47.22,0,0,0,47.1,43.55Z"/></g><path class="cls-12" d="M196.23,602.28s-12.47-110.67,35.42-203.94c5.07-9.89,17.68-7.4,19.76,3.92C258.85,442.84,266.28,523.89,232,610,183.12,732.54,196.23,602.28,196.23,602.28Z"/><path class="cls-12" d="M253.42,624.17S261.24,513.06,325.26,430c6.79-8.8,18.73-4.06,18.72,7.45,0,41.25-7.45,122.31-56.83,200.76C216.88,749.88,253.42,624.17,253.42,624.17Z"/><path class="cls-13" d="M221.56,602s.23-111.38,58.43-198.58c6.17-9.25,18.41-5.34,19.19,6.15,2.77,41.16.91,122.53-43,204.17C193.69,730,221.56,602,221.56,602Z"/><path class="cls-13" d="M259.19,607.66s22-84.13,83-138.64c6.47-5.78,15-.42,13.29,8.41-6,31.65-23.3,92.78-72.47,145.89C213.07,698.88,259.19,607.66,259.19,607.66Z"/><path class="cls-12" d="M177,615.26s12.47-110.68-35.42-203.95c-5.08-9.89-17.68-7.39-19.76,3.93C114.39,455.81,107,536.86,141.29,623,190.13,745.52,177,615.26,177,615.26Z"/><path class="cls-12" d="M119.83,637.14S112,526,48,443c-6.79-8.8-18.73-4.07-18.72,7.44,0,41.26,7.45,122.31,56.83,200.77C156.37,762.86,119.83,637.14,119.83,637.14Z"/><path class="cls-13" d="M151.68,615s-.22-111.37-58.42-198.58c-6.18-9.24-18.41-5.33-19.19,6.15-2.77,41.16-.91,122.53,43,204.17C179.56,742.93,151.68,615,151.68,615Z"/><path class="cls-13" d="M216.52,621s21-109.37-19.52-206.07c-4.3-10.25-17.06-8.75-20,2.38-10.56,39.88-24.24,120.11,3.31,208.63C219.5,751.89,216.52,621,216.52,621Z"/><path class="cls-13" d="M114.06,620.64S92.08,536.51,31,482c-6.48-5.78-15-.43-13.3,8.4,6,31.65,23.31,92.79,72.48,145.89C160.17,711.86,114.06,620.64,114.06,620.64Z"/><path class="cls-3" d="M42.69,599.05H339.32a0,0,0,0,1,0,0V713.29A90.66,90.66,0,0,1,248.66,804H128.59a90.66,90.66,0,0,1-90.66-90.66V603.81a4.76,4.76,0,0,1,4.76-4.76Z"/><rect class="cls-2" x="469.94" y="15.56" width="1164.71" height="553.16"/><g class="cls-14"><rect class="cls-15" x="497.38" y="41.09" width="249.73" height="249.73"/></g><g class="cls-14"><rect class="cls-15" x="497.38" y="318.31" width="249.73" height="227.52"/></g><g class="cls-14"><rect class="cls-15" x="795.5" y="346.95" width="804.31" height="198.88"/></g><rect class="cls-16" x="795.5" y="41.08" width="514.1" height="281.35"/><path class="cls-17" d="M1285.16,117.85V322.43H795.5V169.67h18.29v9.48h15v-5.51h13.93V151.8h6.94V141.61h1.05V151.8h16.65V132.7H869v19.1h11v-.27h0v-2.42h0v-2.29h0V143h0v-2.44h0v-3.81h0v-2.44h0V130.5h0v-2.64h0V124h0v-3.34h0v-3.83h0v-2.52h3.28v-2.86h.52v2.86h24.32v-2.86h.52v2.86h4.44v20h3.1V130.5h0v-2.64h0V124h0v-2.62h0V117.6h0v0h29.48v0h5.07l.79.3v21.79h21.54v28.62h17.41V115.38h3.79v-3.7H995v3.7h13.75v-3.7h.67v3.7h19.48v-3.7h.67v3.7h12.26v-3.7h.68v3.7h5v49.4h19.25v-8l22.69.07v-13H1094v-2.56h.6v2.56h21v-2.56h.6v2.56h4.23v25.75h27v9.48h15v-5.51h13.93V151.8h7V141.61h1V151.8h16.65V132.7h1.64v19.1h11v-.27h0v-2.42h0v-2.29h0V143h0v-2.44h0v-3.81h0v-2.44h0V130.5h0v-2.64h0V124h0v-3.34h0v-3.83h0v-2.52H1217v-2.86h.52v2.86h24.31v-2.86h.53v2.86h4.43v20h3.1V130.5h0v-2.64h0V124h0v-2.62h0V117.6h0v0h29.48v0h5.06Z"/><rect class="cls-18" x="1004.04" y="115.39" width="43.5" height="8.37"/><rect class="cls-18" x="1213.81" y="114.34" width="20.29" height="5.08"/><rect class="cls-18" x="1213.81" y="122.17" width="20.29" height="5.09"/><rect class="cls-18" x="1213.81" y="130.16" width="20.29" height="5.09"/><rect class="cls-18" x="1213.81" y="138.28" width="20.29" height="5.08"/><rect class="cls-18" x="1213.81" y="146.11" width="20.29" height="5.09"/><rect class="cls-18" x="1213.81" y="154.73" width="20.29" height="5.09"/><rect class="cls-18" x="1213.81" y="162.56" width="20.29" height="5.08"/><rect class="cls-18" x="1213.81" y="170.55" width="20.29" height="5.09"/><rect class="cls-18" x="1213.81" y="178.66" width="20.29" height="5.08"/><rect class="cls-18" x="1213.81" y="186.5" width="20.29" height="5.08"/><rect class="cls-18" x="879.82" y="114.34" width="21.75" height="5.08"/><rect class="cls-18" x="879.82" y="122.17" width="21.75" height="5.09"/><rect class="cls-18" x="879.82" y="130.16" width="21.75" height="5.09"/><rect class="cls-18" x="879.82" y="138.28" width="21.75" height="5.08"/><rect class="cls-18" x="879.82" y="146.11" width="21.75" height="5.09"/><rect class="cls-18" x="879.82" y="154.73" width="21.75" height="5.09"/><rect class="cls-18" x="879.82" y="162.56" width="21.75" height="5.08"/><rect class="cls-18" x="879.82" y="170.55" width="21.75" height="5.09"/><rect class="cls-18" x="879.82" y="178.66" width="21.75" height="5.08"/><rect class="cls-18" x="879.82" y="186.5" width="21.75" height="5.08"/><rect class="cls-18" x="916.65" y="117.67" width="24.72" height="5.09"/><rect class="cls-18" x="916.65" y="125.5" width="24.72" height="5.08"/><rect class="cls-18" x="916.65" y="133.49" width="24.72" height="5.08"/><rect class="cls-18" x="916.65" y="141.61" width="24.72" height="5.09"/><rect class="cls-18" x="916.65" y="149.44" width="24.72" height="5.08"/><rect class="cls-18" x="916.65" y="157.61" width="24.72" height="5.09"/><rect class="cls-18" x="916.65" y="165.44" width="24.72" height="5.08"/><rect class="cls-18" x="916.65" y="173.43" width="24.72" height="5.08"/><rect class="cls-18" x="916.65" y="181.54" width="24.72" height="5.09"/><rect class="cls-18" x="916.65" y="189.38" width="24.72" height="5.09"/><path class="cls-19" d="M1241.28,96.74h-1.92l0-.15.58-5.1a.33.33,0,0,1,.32-.29h.06a.46.46,0,0,1,.28.13.45.45,0,0,1,.17.33Z"/><path class="cls-20" d="M1239.55,95.58h-.07l.48-4.09a.33.33,0,0,1,.32-.29h.06l.05,0a.48.48,0,0,1,.14.35l0,2.94A1,1,0,0,1,1239.55,95.58Z"/><rect class="cls-19" x="1238.81" y="119.41" width="3.68" height="162.64"/><rect class="cls-21" x="1238.81" y="119.41" width="1.7" height="162.64"/><rect class="cls-19" x="1234.78" y="256.1" width="11.73" height="43.03"/><rect class="cls-21" x="1234.78" y="256.1" width="6.99" height="43.03"/><path class="cls-19" d="M1247.06,99.19c0,2-3,3.64-6.74,3.64q-.42,0-.84,0c-3.33-.22-5.9-1.75-5.9-3.61s2.57-3.39,5.9-3.61q.42,0,.84,0C1244,95.55,1247.06,97.18,1247.06,99.19Z"/><path class="cls-21" d="M1243.57,99.19c0,1.62-1.68,3-4.09,3.61-3.33-.22-5.9-1.75-5.9-3.61s2.57-3.39,5.9-3.61C1241.89,96.18,1243.57,97.57,1243.57,99.19Z"/><polygon class="cls-21" points="1246.5 122.62 1234.77 122.62 1230.63 102.7 1250.01 102.7 1246.5 122.62"/><rect class="cls-19" x="1229.59" y="101.2" width="21.46" height="1.91"/><rect class="cls-21" x="1229.59" y="101.2" width="13.49" height="1.91"/><path class="cls-22" d="M1236.71,256.1h7.49l-1.09-3.33a.73.73,0,0,0-.69-.49h-3.51a1,1,0,0,0-.87.58Z"/><polygon class="cls-23" points="1232.02 103.67 1248.57 103.67 1245.33 121.57 1235.83 121.57 1232.02 103.67"/><polygon class="cls-19" points="1249.68 101.2 1230.96 101.2 1232.49 99.02 1248.22 99.02 1249.68 101.2"/><polygon class="cls-21" points="1245.07 101.2 1230.96 101.2 1232.49 99.02 1243.61 99.02 1245.07 101.2"/><path class="cls-12" d="M913.77,299.31l-118.27,0V270.39l1.15.56c16.13,8.22,14,19.16,34,15.15s36.46-5.69,45.4,0,15.52,3.43,26.64,3.39C911.92,289.46,913.49,296.81,913.77,299.31Z"/><polygon class="cls-24" points="938.31 266.23 825.62 266.23 820.41 239.74 932.9 239.74 938.31 266.23"/><polygon class="cls-25" points="940.24 266.23 827.54 266.23 822.34 239.74 934.83 239.74 940.24 266.23"/><path class="cls-24" d="M825.62,266.23h33.26a0,0,0,0,1,0,0v3.24a0,0,0,0,1,0,0h-30.8a2.47,2.47,0,0,1-2.47-2.47v-.78A0,0,0,0,1,825.62,266.23Z"/><rect class="cls-26" x="858.63" y="266.23" width="102.35" height="3.24"/><path class="cls-26" d="M832.35,269.47l-1.93,7.59h0l-5.72,22.48a.66.66,0,0,1-.63.5.92.92,0,0,1-.91-1.1l5.09-26.21.64-3.26Z"/><path class="cls-24" d="M830.42,277.06c.18-3.89-2.17-4.33-2.17-4.33l.64-3.26h3.46Z"/><path class="cls-26" d="M856.79,269.47l-1.93,7.59h0l-5.71,22.48a.67.67,0,0,1-.64.5.92.92,0,0,1-.9-1.1l5.09-26.21.64-3.26Z"/><path class="cls-24" d="M854.86,277.06c.19-3.89-2.16-4.33-2.16-4.33l.64-3.26h3.45Z"/><path class="cls-26" d="M951.64,269.47l1.93,7.59h0l5.72,22.48a.66.66,0,0,0,.63.5.93.93,0,0,0,.91-1.1l-5.1-26.21-.63-3.26Z"/><path class="cls-24" d="M953.57,277.06c-.18-3.89,2.16-4.33,2.16-4.33l-.63-3.26h-3.46Z"/><path class="cls-26" d="M927.2,269.47l1.93,7.59h0l5.71,22.48a.67.67,0,0,0,.64.5.92.92,0,0,0,.9-1.1l-5.09-26.21-.64-3.26Z"/><path class="cls-24" d="M929.13,277.06c-.19-3.89,2.16-4.33,2.16-4.33l-.64-3.26H927.2Z"/><path class="cls-12" d="M865.76,113.56a23.17,23.17,0,0,1-10,3c-16.32,1-22,7.09-35.17,19.94-7.1,6.88-16.87,8.37-25,8.61V57.83c2.31,1.64,4.67,3.34,7.09,4.94,9,6,18.71,10.91,29.36,8.32s19-2.45,25.44-.37c8.26,2.6,13.67,8.26,17.54,15.2C880.29,95.45,875.65,107.9,865.76,113.56Z"/><path class="cls-27" d="M999,82.7a7.31,7.31,0,1,1,7.31,7.32A7.31,7.31,0,0,1,999,82.7Z"/><path class="cls-27" d="M1119.4,76.19S1125.76,66,1141,67.12c0,0,22.06-17,45.58-2.27,0,0,25-3.66,43.52,3.16,12.34,4.55,16.42,9.32,16.42,9.32Z"/><g class="cls-28"><path class="cls-27" d="M1195.31,102.43s4.16-6.68,14.09-5.93c0,0,14.43-11.13,29.82-1.49,0,0,16.35-2.39,28.46,2.07,8.07,3,10.74,6.09,10.74,6.09Z"/></g><g class="cls-28"><path class="cls-27" d="M885,97.8s4.16-6.68,14.1-5.93c0,0,14.42-11.14,29.81-1.49,0,0,16.35-2.39,28.46,2.07,8.07,3,10.74,6.09,10.74,6.09Z"/></g><rect class="cls-19" x="795.5" y="299.13" width="514.1" height="23.3"/><path class="cls-9" d="M1119.41,292a21.87,21.87,0,0,1,4.35-18c6.87-8.89,18.52-6.5,18.52-6.5s1.62,2.5-1.59,4.48-14.43-2-17.26,17.49C1123.43,289.45,1122.09,293.47,1119.41,292Z"/><path class="cls-29" d="M1032.24,160.49a4.14,4.14,0,1,1,4.14,4.14A4.14,4.14,0,0,1,1032.24,160.49Z"/><path class="cls-19" d="M1132.54,286.58a5.82,5.82,0,1,1,5.82,5.81A5.83,5.83,0,0,1,1132.54,286.58Z"/><path class="cls-19" d="M1003.69,282.14a8.9,8.9,0,1,1,8.9,8.9A8.91,8.91,0,0,1,1003.69,282.14Z"/><rect class="cls-30" x="969.23" y="214.29" width="103.96" height="3.55" transform="translate(668.39 1198.45) rotate(-82.19)"/><polygon class="cls-29" points="1017.84 167.89 1017.84 163.91 1035.94 159.95 1037.13 163.3 1017.84 167.89"/><path class="cls-31" d="M1012.88,299a16.57,16.57,0,1,1,16.57-16.57A16.58,16.58,0,0,1,1012.88,299Zm0-29.79a13.22,13.22,0,1,0,13.22,13.22A13.23,13.23,0,0,0,1012.88,269.24Z"/><path class="cls-31" d="M1138.36,298.69a12.11,12.11,0,1,1,12.11-12.11A12.12,12.12,0,0,1,1138.36,298.69Zm0-21.56a9.45,9.45,0,1,0,9.44,9.45A9.46,9.46,0,0,0,1138.36,277.13Z"/><rect class="cls-30" x="1035.57" y="286.9" width="87.59" height="6.62" rx="2.67"/><path class="cls-30" d="M1121.44,293.56a1.35,1.35,0,0,1-1.26-.91A1.33,1.33,0,0,1,1121,291l16.91-5.64a1.33,1.33,0,1,1,.85,2.52l-16.92,5.65A1.54,1.54,0,0,1,1121.44,293.56Z"/><polygon class="cls-30" points="1017.46 241.69 1045.81 287.04 1053.01 287.04 1018.97 233.26 1017.46 241.69"/><path class="cls-31" d="M1019.08,267.91l-2.6-.79-2.71,8.91a6.56,6.56,0,0,1-6.82,4.62l-8.6-.73-.23,2.71,8.63.73a11.51,11.51,0,0,1,8.74,5.27l4.57,7.15,2.29-1.46-4.41-6.91a13.06,13.06,0,0,1-1.49-10.85Z"/><path class="cls-31" d="M1142.26,277.3l-1.69-.51-1.77,5.79a4.25,4.25,0,0,1-4.43,3l-5.59-.48-.15,1.77,5.61.47a7.44,7.44,0,0,1,5.68,3.43l3,4.64,1.49-1-2.87-4.49a8.5,8.5,0,0,1-1-7.05Z"/><path class="cls-9" d="M1136.78,286.36a1.34,1.34,0,1,1,1.33,1.34A1.34,1.34,0,0,1,1136.78,286.36Z"/><path class="cls-9" d="M1011.26,282.14a1.33,1.33,0,1,1,1.33,1.33A1.33,1.33,0,0,1,1011.26,282.14Z"/><path class="cls-9" d="M1002.44,265a21.84,21.84,0,0,1,18.44-1.94c10.68,3.49,12.33,15.27,12.33,15.27s-1.81,2.37-4.75,0-3-14.26-22.26-10.4C1006.2,267.9,1002,268,1002.44,265Z"/><path class="cls-32" d="M1076.26,61.49s-13.41,21.56-13.41,27.42,4.27,12.58,4.27,12.58l13.57-11.26,6.75-12.12Z"/><path class="cls-33" d="M1086.85,93.12s-4.52,8.16-12.61,6.71a23.08,23.08,0,0,1-3-6.47c-.08-.36-.15-.7-.22-1-.68-3.23-1.14-5-1.14-5h0c.31-.21,10.56-7,10.62-6.59C1082.07,89.52,1086.85,93.12,1086.85,93.12Z"/><path class="cls-34" d="M1066.39,87.79s12.44,4.17,14.91-3.62,5.75-12.5-2.09-15.48-10.33-.51-11.79,1.89S1063.21,86.51,1066.39,87.79Z"/><path class="cls-35" d="M1052.27,287h20.51a1.78,1.78,0,0,0,.43-.12c1.37-.69.94-5.93.78-7.55,0-.3-.06-.47-.06-.47s-7.21-5.77-8.2-1.35l-.1.4h0c-1.26,4.13-6.85,6-10.08,6.53C1053.08,284.88,1052.44,286.31,1052.27,287Z"/><path class="cls-35" d="M1092.41,287h20.5a1.75,1.75,0,0,0,.44-.12c1.36-.69.94-5.93.77-7.55,0-.3,0-.47,0-.47s-7.21-5.77-8.2-1.35c0,.13-.07.27-.11.4h0c-1.25,4.13-6.85,6-10.08,6.53C1093.21,284.88,1092.57,286.31,1092.41,287Z"/><path class="cls-9" d="M1056.41,168.8s1.09,13.66,2.38,30.08c1.75,22.31,3.85,49.71,4.06,54.9.36,9,2.78,24.16,2.78,24.16s1.45,2.39,8.3.95c0,0,7.1-20.28,8.84-42,0-.36.06-.72.08-1.08,1.63-22.17,4.15-68.85,4.15-68.85Z"/><path class="cls-29" d="M1056.41,168.8s1.09,13.66,2.38,30.08l24,38c0-.36.06-.72.08-1.08,1.63-22.17,4.15-68.85,4.15-68.85Z"/><path class="cls-9" d="M1061.41,170.42s13.44,51.5,26.42,74.75,17.61,33.6,17.61,33.6,8,2.14,8.63.12c0,0-6.8-55.34-12.07-68.28-2.72-6.7-4-27.3-4.27-33.79s-4.83-15.32-4.83-15.32Z"/><path class="cls-19" d="M1057,190.49c25,12.34,52.26,8.35,52.21,7.5s-10.4-56-14-72c-3.34-15-7.85-28-12-31-.55-.37-3.83,1.32-6.86,2.88a12.55,12.55,0,0,1-8.27,1.17,19.69,19.69,0,0,0-2.16,3.76c-1.68,4.09-10.44,32.06-10.55,36.9,0,.28,0,.57,0,.86,0,1.4-.06,2.8-.08,4.2C1055.22,146.27,1056.7,190.35,1057,190.49Z"/><path class="cls-36" d="M1056.05,169.49c24.54-13.76,22.1-45.44,22.1-45.44l-22.91,20.63c0,1.59,0,3.18,0,4.74,0,1.18,0,2.34,0,3.49v.15c0,.43,0,.89,0,1.32C1055.22,156.3,1056,167.74,1056.05,169.49Z"/><path class="cls-34" d="M1031.3,160c-1.22-2.11-.26-3-.26-3s20.26-14.89,21.86-16.41,9.55-26.22,9.55-26.22,2.79-10,8.61-10.94c5.07-.81,8.47,1.78,10.65,4.77a10.72,10.72,0,0,1,.36,12.09c-5.32,8.36-16,24.95-19.09,27.74-6.83,6.23-28.81,13.71-28.81,13.71A3.67,3.67,0,0,1,1031.3,160Z"/><path class="cls-37" d="M1080.67,86.3c.16.12,2.82,1.22,9-8.63a9,9,0,0,0,.23-8.27c-1.61-3.28-8.11-6.33-13.6-7.91s-7.12,1.44-8.73,4.48c-1.69,3.19-5.93,5.55-5.93,5.55,4.57,3.14,10.73-.17,12.68.65s2.37,4,2.43,5.08.21,1.89,2.82,1.22.81,3.69.33,4.51C1079.86,83,1079.3,85.23,1080.67,86.3Z"/><path class="cls-19" d="M1076.26,61.49s6.86,11.73,7.08,16.74S1068.05,99,1068.05,99s13.3,3.5,18.77,0c0,0,12.66-17.63,12.66-20.85S1092.07,61.68,1076.26,61.49Z"/><path class="cls-36" d="M1064.15,168.32s12,2,19.61.87l-.17,12.1L1074,185l-9.81-5.44Z"/><path class="cls-34" d="M1031,157s-7.76.39-9.32,1.84-4.61,4.23-2.3,4.72l5.57-1.22c2.85.67,3.88,2.22,5.69,1.25l3.8-2Z"/><path class="cls-9" d="M1012.39,165.35a4.15,4.15,0,1,1,4.15,4.14A4.14,4.14,0,0,1,1012.39,165.35Z"/><path class="cls-9" d="M1124.67,136.19a8.18,8.18,0,0,1-.23,1.57c-1.63,6.22-22.67,10.92-25,8.67a9,9,0,0,1-1.37-1.8c-6-9.85-13.59-45.73-10.6-43.6a60.54,60.54,0,0,1,10.19-2.19l.81-.06h0a9.56,9.56,0,0,1,3.68.33c3.91,1.45,7,11.67,7,11.67a26.77,26.77,0,0,1,6.1-.1c.35,0,.7.09,1,.16h0a6.07,6.07,0,0,1,2.27.9C1121.06,113.49,1125.09,129.46,1124.67,136.19Z"/><path class="cls-9" d="M1090.09,100.52s-7.21-6.9-19.3-4.44L1068.05,99s12.12-2.91,18.8,3.47Z"/><path class="cls-9" d="M1069.11,133.36s7.21,12.81,26.91,6.45l2,4.82s-23.42,6.66-31.33-6.24Z"/><path class="cls-19" d="M1071.7,101.49s-5-.57-6.84,4.09c-1.32,3.33-4.26,19-10.91,30.37-2.66,4.57-12.82,13.5-17,16.74,0,0,1.54,4.95,4.85,6.27,0,0,16,1.62,26.52-10.35,3-3.4,20.91-32.56,17.22-38.58S1071.7,101.49,1071.7,101.49Z"/><path class="cls-29" d="M1098.47,98.78c-.72.69-2.12,2.52-1.65,6a32.17,32.17,0,0,0,2.14,8.08l-.52.24a32.88,32.88,0,0,1-2.19-8.24,7.66,7.66,0,0,1,1.38-6Z"/><path class="cls-29" d="M1118.83,136.33l-.55.18c-.24-.77-5.83-18.8-5.45-22.13a4.67,4.67,0,0,1,2.46-3.7c.35,0,.7.09,1,.16a4.15,4.15,0,0,0-2.93,3.61C1113,117.65,1118.77,136.14,1118.83,136.33Z"/><path class="cls-29" d="M1093.73,128.39l5,14.1s6.89.2,11.1-2.68l-4.59-14.49S1101.38,128.26,1093.73,128.39Z"/><path class="cls-29" d="M1124.67,136.19a8.18,8.18,0,0,1-.23,1.57c-1.63,6.22-22.67,10.92-25,8.67a9,9,0,0,1-1.37-1.8C1098.23,144.62,1110.18,144.21,1124.67,136.19Z"/><path class="cls-38" d="M1093.73,128.39l1.46,4.14,6.58.45,4.72-3.62-1.28-4A101.63,101.63,0,0,0,1093.73,128.39Z"/><path class="cls-30" d="M1100.78,131.73a.41.41,0,0,1,.82,0,.41.41,0,1,1-.82,0Z"/><rect class="cls-19" x="832.2" y="371.52" width="616.64" height="15.51"/><rect class="cls-19" x="832.2" y="402.82" width="616.64" height="15.5"/><rect class="cls-19" x="1106.91" y="434.12" width="341.92" height="15.5"/><rect class="cls-19" x="1037.01" y="465.42" width="265.16" height="15.51"/><rect class="cls-19" x="1106.91" y="496.71" width="341.92" height="15.51"/><rect class="cls-19" x="515.35" y="245.85" width="163.3" height="7.75"/><rect class="cls-19" x="694.4" y="245.85" width="17.97" height="17.97"/><rect class="cls-39" x="576.41" y="245.85" width="74.92" height="7.75"/><rect class="cls-19" x="515.35" y="203.35" width="163.3" height="7.74"/><rect class="cls-19" x="694.4" y="203.35" width="17.97" height="17.97"/><rect class="cls-39" x="536.73" y="203.35" width="52.18" height="7.74"/><rect class="cls-19" x="515.35" y="160.85" width="163.3" height="7.74"/><rect class="cls-36" x="694.4" y="160.85" width="17.97" height="17.97"/><rect class="cls-36" x="596.16" y="160.85" width="52.18" height="7.74"/><rect class="cls-19" x="515.35" y="118.35" width="163.3" height="7.74"/><rect class="cls-36" x="694.4" y="118.35" width="17.97" height="17.97"/><rect class="cls-36" x="536.73" y="118.35" width="79.38" height="7.74"/><rect class="cls-19" x="515.35" y="75.85" width="163.3" height="7.74"/><rect class="cls-39" x="694.4" y="75.85" width="17.97" height="17.97"/><rect class="cls-39" x="592.39" y="75.85" width="69.6" height="7.74"/><rect class="cls-19" x="588.91" y="342.47" width="15.86" height="15.86"/><rect class="cls-19" x="617.25" y="342.47" width="15.86" height="15.86"/><rect class="cls-19" x="644.06" y="344.51" width="82.71" height="5.89"/><polygon class="cls-19" points="565.22 340.48 578.24 350.39 565.22 357.98 565.22 340.48"/><rect class="cls-36" x="588.91" y="372.81" width="15.86" height="15.86"/><rect class="cls-19" x="617.25" y="372.81" width="15.86" height="15.86"/><rect class="cls-19" x="644.06" y="374.86" width="82.71" height="5.88"/><polygon class="cls-19" points="565.22 370.83 578.24 380.74 565.22 388.33 565.22 370.83"/><rect class="cls-39" x="588.91" y="403.16" width="15.86" height="15.86"/><rect class="cls-19" x="617.25" y="403.16" width="15.86" height="15.86"/><rect class="cls-19" x="644.06" y="405.2" width="82.71" height="5.88"/><polygon class="cls-19" points="565.22 401.18 578.24 411.09 565.22 418.68 565.22 401.18"/><rect class="cls-39" x="588.91" y="433.51" width="15.86" height="15.86"/><rect class="cls-19" x="617.25" y="433.51" width="15.86" height="15.86"/><rect class="cls-19" x="644.06" y="435.55" width="82.71" height="5.89"/><polygon class="cls-19" points="565.22 431.52 578.24 441.44 565.22 449.02 565.22 431.52"/><rect class="cls-36" x="588.91" y="463.85" width="15.86" height="15.86"/><rect class="cls-19" x="617.25" y="463.85" width="15.86" height="15.86"/><rect class="cls-19" x="644.06" y="465.9" width="82.71" height="5.89"/><polygon class="cls-19" points="565.22 461.87 578.24 471.78 565.22 479.37 565.22 461.87"/><rect class="cls-36" x="588.91" y="494.2" width="15.86" height="15.86"/><rect class="cls-19" x="617.25" y="494.2" width="15.86" height="15.86"/><rect class="cls-19" x="644.06" y="496.24" width="82.71" height="5.88"/><polygon class="cls-19" points="565.22 492.22 578.24 502.13 565.22 509.72 565.22 492.22"/><g class="cls-28"><path class="cls-15" d="M512.88,349.23s4.19-5.4,9.85-5.4,9.37,5.4,9.37,5.4a11.29,11.29,0,0,1-9.37,5.41A11.9,11.9,0,0,1,512.88,349.23Z"/><path class="cls-40" d="M518.75,349.23a3.74,3.74,0,1,1,3.74,3.74A3.74,3.74,0,0,1,518.75,349.23Z"/><path class="cls-15" d="M520.2,349.23a2.29,2.29,0,1,1,2.29,2.29A2.29,2.29,0,0,1,520.2,349.23Z"/></g><g class="cls-28"><path class="cls-15" d="M512.88,379.58s4.19-5.41,9.85-5.41,9.37,5.41,9.37,5.41a11.29,11.29,0,0,1-9.37,5.41A11.9,11.9,0,0,1,512.88,379.58Z"/><path class="cls-40" d="M518.75,379.58a3.74,3.74,0,1,1,3.74,3.74A3.73,3.73,0,0,1,518.75,379.58Z"/><path class="cls-15" d="M520.2,379.58a2.29,2.29,0,1,1,2.29,2.29A2.3,2.3,0,0,1,520.2,379.58Z"/></g><g class="cls-28"><path class="cls-15" d="M512.88,409.93s4.19-5.41,9.85-5.41,9.37,5.41,9.37,5.41a11.29,11.29,0,0,1-9.37,5.4A11.9,11.9,0,0,1,512.88,409.93Z"/><path class="cls-40" d="M518.75,409.93a3.74,3.74,0,1,1,3.74,3.74A3.74,3.74,0,0,1,518.75,409.93Z"/><path class="cls-15" d="M520.2,409.93a2.29,2.29,0,1,1,2.29,2.28A2.29,2.29,0,0,1,520.2,409.93Z"/></g><g class="cls-28"><path class="cls-15" d="M512.88,440.27s4.19-5.4,9.85-5.4,9.37,5.4,9.37,5.4a11.29,11.29,0,0,1-9.37,5.41A11.9,11.9,0,0,1,512.88,440.27Z"/><path class="cls-40" d="M518.75,440.27a3.74,3.74,0,1,1,3.74,3.75A3.74,3.74,0,0,1,518.75,440.27Z"/><path class="cls-15" d="M520.2,440.27a2.29,2.29,0,1,1,2.29,2.29A2.29,2.29,0,0,1,520.2,440.27Z"/></g><g class="cls-28"><path class="cls-15" d="M512.88,470.62s4.19-5.4,9.85-5.4,9.37,5.4,9.37,5.4a11.29,11.29,0,0,1-9.37,5.41A11.9,11.9,0,0,1,512.88,470.62Z"/><path class="cls-40" d="M518.75,470.62a3.74,3.74,0,1,1,3.74,3.74A3.73,3.73,0,0,1,518.75,470.62Z"/><path class="cls-15" d="M520.2,470.62a2.29,2.29,0,1,1,2.29,2.29A2.29,2.29,0,0,1,520.2,470.62Z"/></g><g class="cls-28"><path class="cls-15" d="M512.88,501s4.19-5.41,9.85-5.41S532.1,501,532.1,501a11.29,11.29,0,0,1-9.37,5.4A11.9,11.9,0,0,1,512.88,501Z"/><path class="cls-40" d="M518.75,501a3.74,3.74,0,1,1,3.74,3.74A3.73,3.73,0,0,1,518.75,501Z"/><path class="cls-15" d="M520.2,501a2.29,2.29,0,1,1,2.29,2.28A2.3,2.3,0,0,1,520.2,501Z"/></g><rect class="cls-9" x="1213.89" y="465.42" width="234.95" height="15.51"/><rect class="cls-9" x="1255.41" y="434.12" width="136.51" height="15.5"/><rect class="cls-9" x="1240.32" y="371.52" width="157.98" height="15.51"/><rect class="cls-36" x="1288.36" y="402.82" width="136.51" height="15.5"/><path class="cls-40" d="M913.63,142.14c-32.28-41.25-68.2-42.69-68.56-42.7l0-.93c.37,0,36.72,1.47,69.27,43.05Z"/><path class="cls-39" d="M840.89,99a3.84,3.84,0,1,1,3.84,3.83A3.83,3.83,0,0,1,840.89,99Z"/><path class="cls-39" d="M910.16,141.46A3.84,3.84,0,1,1,914,145.3,3.84,3.84,0,0,1,910.16,141.46Z"/><path class="cls-40" d="M923.29,91l-.71-.6c.24-.28,24.24-27.68,77-26.94v.92C947.19,63.67,923.52,90.73,923.29,91Z"/><path class="cls-39" d="M920.31,94a3.83,3.83,0,1,1,5.39-.58A3.83,3.83,0,0,1,920.31,94Z"/><path class="cls-39" d="M996.85,66.66a3.83,3.83,0,1,1,5.39-.58A3.83,3.83,0,0,1,996.85,66.66Z"/><path class="cls-40" d="M1167.82,90.9l-.84-.72c.27-.31,27.39-31.05,90.85-27l-.07,1.1C1194.84,60.27,1168.08,90.59,1167.82,90.9Z"/><path class="cls-39" d="M1164.44,94.21a4.34,4.34,0,1,1,6.44-.35A4.57,4.57,0,0,1,1164.44,94.21Z"/><path class="cls-39" d="M1254.72,66.81a4.34,4.34,0,1,1,5.41-6.72,4.34,4.34,0,1,1-5.41,6.72Z"/><rect class="cls-40" x="1058.81" y="105.27" width="64.43" height="0.93"/><path class="cls-41" d="M1055,105.73a3.84,3.84,0,1,1,3.84,3.84A3.84,3.84,0,0,1,1055,105.73Z"/><path class="cls-41" d="M1119.4,105.73a3.84,3.84,0,1,1,3.84,3.84A3.84,3.84,0,0,1,1119.4,105.73Z"/><rect class="cls-39" x="1187.12" y="352.85" width="9.29" height="9.29" transform="translate(601.76 -737.95) rotate(45)"/><path class="cls-40" d="M1022.54,222.33c-36.68,0-75.38-6.44-106.75-13.5A829.64,829.64,0,0,1,812.7,178.36l.34-.87a826,826,0,0,0,103,30.44c52.41,11.79,125.29,21.86,174.85,2.94,49.76-19,102.44-16.25,137.87-10.6,38.38,6.11,65.36,16.87,65.63,17l-.34.87c-.27-.11-27.17-10.83-65.46-16.93-35.31-5.63-87.81-8.36-137.37,10.56C1071.13,219.4,1047.3,222.33,1022.54,222.33Z"/><path class="cls-42" d="M1097.67,207.89a3.84,3.84,0,1,1,3.83,3.84A3.84,3.84,0,0,1,1097.67,207.89Z"/><path class="cls-42" d="M991.35,221.37a3.84,3.84,0,1,1,3.84,3.84A3.83,3.83,0,0,1,991.35,221.37Z"/><path class="cls-40" d="M1016,315.23a60.84,60.84,0,0,1-25.58-5.42l.39-.84c26.43,12.15,53-.21,53.3-.34l.4.84A73.67,73.67,0,0,1,1016,315.23Z"/><path class="cls-39" d="M1046.72,312a3.83,3.83,0,1,1,.58-5.39A3.83,3.83,0,0,1,1046.72,312Z"/><path class="cls-39" d="M993,312.37a3.83,3.83,0,1,1,.57-5.39A3.85,3.85,0,0,1,993,312.37Z"/><path class="cls-40" d="M1142.7,315.23a60.79,60.79,0,0,1-25.57-5.42l.39-.84c26.43,12.15,53-.21,53.3-.34l.4.84A73.76,73.76,0,0,1,1142.7,315.23Z"/><path class="cls-39" d="M1173.43,312a3.83,3.83,0,1,1,.57-5.39A3.83,3.83,0,0,1,1173.43,312Z"/><path class="cls-39" d="M1119.73,312.37a3.83,3.83,0,1,1,.57-5.39A3.84,3.84,0,0,1,1119.73,312.37Z"/><g class="cls-43"><path class="cls-19" d="M1309.6,173.94V305.22l-46.93-6.09s-4.19-27.67,15.75-36.46C1297,254.51,1284.49,183.31,1309.6,173.94Z"/></g><path class="cls-39" d="M1288.09,217.67a3.83,3.83,0,1,1,3.83,3.84A3.83,3.83,0,0,1,1288.09,217.67Z"/><path class="cls-39" d="M810,177.92a3.84,3.84,0,1,1,3.84,3.84A3.84,3.84,0,0,1,810,177.92Z"/><g class="cls-14"><rect class="cls-15" x="1352.25" y="41.34" width="247.56" height="281.1"/></g><rect class="cls-19" x="1373.79" y="58.26" width="120.84" height="3.45"/><rect class="cls-19" x="1373.79" y="66.84" width="93.5" height="3.45"/><rect class="cls-19" x="1558.27" y="60.26" width="6.54" height="6.54"/><rect class="cls-19" x="1373.79" y="96.39" width="120.84" height="3.45"/><rect class="cls-19" x="1373.79" y="104.97" width="93.5" height="3.45"/><rect class="cls-19" x="1558.27" y="98.39" width="6.54" height="6.54"/><rect class="cls-19" x="1373.79" y="134.52" width="120.84" height="3.45"/><rect class="cls-19" x="1373.79" y="143.1" width="93.5" height="3.45"/><rect class="cls-19" x="1558.27" y="136.52" width="6.54" height="6.54"/><rect class="cls-19" x="1373.79" y="172.65" width="120.84" height="3.45"/><rect class="cls-19" x="1373.79" y="181.23" width="93.5" height="3.45"/><rect class="cls-19" x="1558.27" y="174.65" width="6.54" height="6.54"/><rect class="cls-19" x="1373.79" y="210.78" width="120.84" height="3.45"/><rect class="cls-19" x="1373.79" y="219.36" width="93.5" height="3.45"/><rect class="cls-19" x="1558.27" y="212.78" width="6.54" height="6.54"/><rect class="cls-19" x="1558.27" y="247.36" width="6.54" height="6.54"/><rect class="cls-19" x="1373.79" y="248.91" width="120.84" height="3.45"/><rect class="cls-19" x="1373.79" y="257.49" width="93.5" height="3.45"/><rect class="cls-19" x="1373.79" y="287.04" width="120.84" height="3.45"/><rect class="cls-19" x="1373.79" y="295.62" width="93.5" height="3.45"/><rect class="cls-19" x="1558.27" y="289.04" width="6.54" height="6.54"/><path class="cls-44" d="M1457,883.49s-17.27,42.7-11.19,47.16,27-13.68,32.54-32.82S1457,883.49,1457,883.49Z"/><path class="cls-34" d="M1810.08,1171.55c-76.45,0-156.26,0-231.7,0-2.9-7-6-14.39-9.22-21.89-20.92-48.73-47.17-103.59-61.78-110.12-26.88-12-43.06-1.5-76.51-40.54s-54.72-52.31-41.58-61.32,56.52,24.85,68.56,23.38c9.66-1.17,14.69-24.59,13.9-49.32a148.24,148.24,0,0,0-1.85-19.29h0c-.5-3.16-1.14-6.25-1.86-9.21a80.53,80.53,0,0,0-4.25-12.84c-3.29-7.5-3-12.64-.49-16.09,7.5-10.33,34.92-5.35,45.27-2.89,4.61,1.1,18.9-7.56,28.91-2.63,15.53,7.65,24.58-1.18,34.89,5.46,7.29,4.69,22.31,6.89,27.48,13.66,9.85,12.87,12.29,40.13,21.88,65.32,8.88,23.31,12,47.77,42.43,89.06,13.58,18.39,55.6,61.07,98,102.75C1778.64,1141.17,1795.14,1157.18,1810.08,1171.55Z"/><path class="cls-34" d="M1463.11,854.22s-63.78,52.21-55.5,59.22,29.32.12,63.73-21.92S1463.11,854.22,1463.11,854.22Z"/><path class="cls-3" d="M1829.19,1171.55h-19.11c-76.45,0-156.26,0-231.7,0h-22.54l-2.61-5.42s5.31-7.19,15.93-16.47c27.87-24.38,92.27-63.22,193-24.63q6.72,2.58,13.66,5.62Z"/><path class="cls-44" d="M786.79,910.16s11.07,44.71,4.41,48.26-24.78-17.35-27.57-37.08S786.79,910.16,786.79,910.16Z"/><path class="cls-34" d="M796.34,1028.18c-38.62,33.92-53.16,21.24-81.47,29.32-15.37,4.4-49.12,55-76.71,100.29-2.36,3.87-4.68,7.71-6.93,11.47l-266.56-1c22.8-16.26,54.38-39,85.85-62.16,47.9-35.27,95.55-71.59,111.59-87.89,36-36.56,42.5-60.33,54.59-82.16,12.88-23.27,12.5-50.65,30.29-50.38,8.77.14,16.5-11.3,24.58-15,11.15-5.11,21.8,6.25,38.26.88,10.61-3.46,25.15,5.9,29.87,5.46,9.09-.83,31.08-4.19,41,.94,5.54,2.84,7.35,8.29,1.2,18.24a79,79,0,0,0-6,12.11q-1.53,3.76-2.83,7.82A149.74,149.74,0,0,0,768.2,936c-4.28,24.37-2.6,48.26,6.8,50.8,11.7,3.15,60.13-29.35,71.87-18.58S835,994.27,796.34,1028.18Z"/><path class="cls-34" d="M779.72,877.67S876,906.37,871,916s-55.42,8-95.62.63S779.72,877.67,779.72,877.67Z"/><path class="cls-3" d="M647.12,1169.32l-15.89-.06-266.56-1-32.28-.11,103.83-58.42c4.87-1.36,9.63-2.56,14.3-3.63,105.23-24,163.5,23.59,187.64,51.65A143.39,143.39,0,0,1,647.12,1169.32Z"/><path class="cls-3" d="M1140.47,1097.33a14,14,0,0,0,.12,1.84,15,15,0,0,0,14.94,13.22h211.82a15.06,15.06,0,1,0,0-30.12H1155.53A15.06,15.06,0,0,0,1140.47,1097.33Z"/><path class="cls-3" d="M1156.63,1079.55h72.62a2.33,2.33,0,0,0,2.31-2.32h0a2.32,2.32,0,0,0-2.31-2.31h-72.62a2.32,2.32,0,0,0-2.31,2.31h0A2.33,2.33,0,0,0,1156.63,1079.55Z"/><rect class="cls-37" x="1160.64" y="1079.55" width="7.87" height="2.73" transform="translate(2329.15 2161.82) rotate(180)"/><path class="cls-37" d="M1142.3,1104.54a15.09,15.09,0,0,0,13.23,7.85h44.87v-7.85Z"/><path class="cls-9" d="M1410.45,1092.92v8.82a10.63,10.63,0,0,1-10.65,10.65H1179.16a10.63,10.63,0,0,1-10.65-10.65v-8.82a10.65,10.65,0,0,1,10.65-10.65H1399.8A10.65,10.65,0,0,1,1410.45,1092.92Z"/><path class="cls-38" d="M1410.08,1104.54a10.64,10.64,0,0,1-10.28,7.85H1179.16a10.64,10.64,0,0,1-10.28-7.85Z"/><path class="cls-7" d="M1388.53,1097.39a16.74,16.74,0,0,0,4.38,11.63l.18.18a10.72,10.72,0,0,0,7.56,3.3c4.47,0,15.54-6.74,22.4-11.21,3.42-2.23,5.79-3.9,5.79-3.9s-2.37-1.67-5.79-3.9c-6.86-4.48-17.93-11.22-22.4-11.22a9.92,9.92,0,0,0-3.71.72,12.06,12.06,0,0,0-5.1,4,16.58,16.58,0,0,0-3.07,7.37s0,.06,0,.1A18.22,18.22,0,0,0,1388.53,1097.39Z"/><path class="cls-45" d="M1388.53,1097.39a16.74,16.74,0,0,0,4.38,11.63l34-11.69-38.11-2.84A18.22,18.22,0,0,0,1388.53,1097.39Z"/><path class="cls-46" d="M1391.84,1087l33.87,9.25L1396.94,1083A12.06,12.06,0,0,0,1391.84,1087Z"/><path class="cls-47" d="M1420.84,1097.39a4.18,4.18,0,0,0,2.21,3.9c3.42-2.23,5.79-3.9,5.79-3.9s-2.37-1.67-5.79-3.9A4.16,4.16,0,0,0,1420.84,1097.39Z"/><path class="cls-29" d="M79.3,1057.53a122.64,122.64,0,0,0,27.52-3.15c35.72-8.14,73.86-32.39,101.85-77.09,0,0-5.86-30-22.71-53.54h0C174.27,907.45,154.08,888.1,130,888a51.22,51.22,0,0,0-35.08,12.91c-14.61,12.47-22.3,29.85-33.61,32.36s-23.23,8.42-33.42,16.92c-1.67,1.39-3.29,2.84-4.84,4.37h0c-.65.63-1.28,1.26-1.9,1.91a.1.1,0,0,0,0,0C7.39,970.88-.69,990.43,6.15,1012a62.64,62.64,0,0,0,7.58,15.54C26.31,1046.59,50.75,1057.48,79.3,1057.53Z"/><path class="cls-48" d="M118.42,900.48s20.88-7.31,30.75,5.33-3.43,20.46-14.57,18.45S108,907.38,118.42,900.48Z"/><path class="cls-49" d="M6.15,1012c1.59,5,4.55,9.9,7.59,15.54,21.42,39.84,51.4,56.56,74.18,62,25.18,6,72.32-4.17,91.07-16.28,30.78-19.88,40.16-55.29,29.67-96,0,0-5.85-30-22.7-53.53h0s-13.39,68.87-91.89,91.61C58.4,1025.7,28.35,1020.62,6.15,1012Z"/><path class="cls-12" d="M36.57,913.35c.4-12.53,13.86-16.86,24.84-24.85s24-28.56,24-28.56A176.4,176.4,0,0,0,47,866.73C26.08,872.84,36.57,913.35,36.57,913.35Z"/><path class="cls-13" d="M36.57,913.35c-1.55-13,4.52-31.34,12.59-37s36.26-16.39,36.26-16.39A176.4,176.4,0,0,0,47,866.73C26.08,872.84,36.57,913.35,36.57,913.35Z"/><path class="cls-49" d="M61.31,933.24c-11.16,2.47-23.23,8.42-33.42,16.92,18.38-13.78,47.74-9.09,49.47-17.66,1.86-9.21,17-30.8,17.56-31.62C80.31,913.35,72.62,930.73,61.31,933.24Z"/><path class="cls-50" d="M21.14,956.45a26.31,26.31,0,0,0,1.9-1.91C22.39,955.17,21.76,955.8,21.14,956.45Z"/><path class="cls-13" d="M76.08,933.48h0C67,919.46,49,912.42,35.58,909,24.88,906.24,9.39,904.2,2,903.32A1.75,1.75,0,0,0,.4,906.17L3,909.42a14.32,14.32,0,0,0,10.76,5.29c12.88.33,41.8,2.92,56.41,19.43C71.86,936,77.72,936,76.08,933.48Z"/><rect class="cls-51" x="246.28" y="661.87" width="15.04" height="177.27" transform="translate(-115.83 49.76) rotate(-9.13)"/><polygon class="cls-52" points="234.8 632.18 232.32 664.19 247.17 661.8 234.8 632.18"/><rect class="cls-51" x="376.95" y="676.46" width="15.04" height="177.27" transform="translate(146.21 -57.35) rotate(10.52)"/><polygon class="cls-52" points="406.37 647.27 393.27 676.58 408.06 679.33 406.37 647.27"/><rect class="cls-51" x="358.21" y="625.34" width="15.04" height="177.27" transform="matrix(0.98, 0.18, -0.18, 0.98, 136.57, -54.79)"/><polygon class="cls-52" points="387.62 596.15 374.52 625.46 389.31 628.21 387.62 596.15"/><rect class="cls-29" x="288" y="735.7" width="118.47" height="170.73"/><rect class="cls-9" x="228.77" y="735.7" width="118.47" height="170.73"/><rect class="cls-12" x="1436.8" y="636.98" width="143.23" height="129.05" transform="translate(157.6 -269.44) rotate(10.77)"/><rect class="cls-13" x="1436.8" y="648.53" width="143.23" height="18.59" transform="matrix(0.98, 0.19, -0.19, 0.98, 149.45, -270.22)"/><rect class="cls-7" x="517.29" y="619.93" width="143.23" height="129.05" transform="translate(-143.16 155.9) rotate(-13.46)"/><rect class="cls-45" x="505.57" y="621.31" width="143.23" height="28.38" transform="translate(-132.08 151.82) rotate(-13.46)"/><rect class="cls-53" x="1536.91" y="538.94" width="143.23" height="129.05" transform="translate(-79.99 286.52) rotate(-9.93)"/><rect class="cls-54" x="1528.22" y="539.7" width="143.23" height="28.38" transform="translate(-71.56 284.27) rotate(-9.93)"/></g></g></svg>