<svg xmlns="http://www.w3.org/2000/svg" viewBox="0 0 161.64 150.53"><defs><style>.cls-1{fill:#a89986;}.cls-1,.cls-10,.cls-11,.cls-12,.cls-13,.cls-14,.cls-15,.cls-16,.cls-17,.cls-18,.cls-19,.cls-20,.cls-21,.cls-22,.cls-23,.cls-25,.cls-4,.cls-5,.cls-6,.cls-7,.cls-8,.cls-9{fill-rule:evenodd;}.cls-2,.cls-20{fill:#cf6030;}.cls-22,.cls-3{fill:#e47b06;}.cls-4{fill:#f6d695;}.cls-5{fill:#febd30;}.cls-6{fill:#fcd041;}.cls-7{fill:#d69508;}.cls-8{fill:#753033;}.cls-24,.cls-9{fill:#883c3d;}.cls-10{fill:#652d2d;}.cls-11{fill:#c4262e;}.cls-12{fill:#e9311a;}.cls-13{fill:#f07464;}.cls-14{fill:#ffb596;}.cls-15{fill:#e52614;}.cls-16{fill:#ed1c24;}.cls-17{fill:#699b42;}.cls-18{fill:#9c3;}.cls-19{fill:#d1db39;}.cls-21{fill:#fc9e14;}.cls-23{fill:#f8dab0;}.cls-25{fill:#fff38a;}</style></defs><title>kaartjeMiddel 1</title><g id="Laag_2" data-name="Laag 2"><g id="_1" data-name="1"><path class="cls-1" d="M158.87,99.33,147.8,92.91c-6.73-12.42-23.71-22.27-45.16-26.2l-14-8.13a15,15,0,0,0-13.51,0l-14,8.07C39.67,70.58,22.66,80.4,15.87,92.8l-13,7.53c-3.75,2.17-3.76,5.67,0,7.83l12.36,7.18c6.41,13.51,24.83,24.19,48.17,27.95L73,148.91a14.91,14.91,0,0,0,13.52,0L95,144c27.5-3.09,49.26-15.65,54.64-31.54l9.18-5.31C162.57,105,162.58,101.49,158.87,99.33Z"/><ellipse class="cls-2" cx="81.8" cy="97.55" rx="65.24" ry="37.71"/><ellipse class="cls-3" cx="81.8" cy="95.85" rx="65.17" ry="36.01"/><path class="cls-4" d="M81.8,125.17c36.08,0,65.5-15.25,65.5-33.94S117.88,57.28,81.8,57.28s-65.5,15.25-65.5,34S45.73,125.17,81.8,125.17Z"/><path class="cls-5" d="M2.82,85.54c-3.75,2.16-3.76,5.67,0,7.83L73,134.11a14.85,14.85,0,0,0,13.52,0l72.3-41.74c3.75-2.17,3.76-5.67.05-7.84L88.64,43.79a14.92,14.92,0,0,0-13.51,0Z"/><path class="cls-6" d="M2.82,81.94c-3.75,2.16-3.76,5.67,0,7.83L73,130.52a14.91,14.91,0,0,0,13.52,0l72.3-41.75c3.75-2.16,3.76-5.67.05-7.83L88.64,40.19a14.92,14.92,0,0,0-13.51,0Z"/><path class="cls-7" d="M82.05,52.82c35.57,0,64.42,15.78,64.42,35.23a20.79,20.79,0,0,1-2.1,9.06l-41.26,23.82a21.51,21.51,0,0,0-2.83.72h0a1.14,1.14,0,0,1-.55.19c-.85,0-13.87.46-14.43,1-.21-.2-1.65.07-1.83.17h0l.1,0c-2.13,0-9.39-1.06-11.13-.18h0l.1,0a24.31,24.31,0,0,0-3.17-.28c-1.46-.83-7.06-.61-8.75-1.31-.16-.15-4-1-6.45-1.58L23.69,101.9c-.28-1.16-1.51-1.47-2.44-2.2a21.65,21.65,0,0,1-3.61-11.65C17.64,68.6,46.49,52.82,82.05,52.82Z"/><path class="cls-7" d="M154.13,78.19c.75.73,1.12,1.44.67,2a2.44,2.44,0,0,1-.87.74l-.13.05h0l-.15,0a16.3,16.3,0,0,1-5.36.39c.86,1.07,2,2.3,2.85,3.16,1.94,2.07,2,2.58,1.22,2.36h0c-.13.32-2.26.06-4.82-.44,1,.86,1.52,1.65.54,1.74h0c-.09.24-3.1.4-6.16.33l1.14.31c5.53,1.4,6.23,2.61,4.7,2.91h0c-.75.44-5.2.61-7.56.08-.52,2.55-1.23,7-2.3,7.26a.23.23,0,0,1-.26,0h0a1,1,0,0,1-.21-.16A30.54,30.54,0,0,1,134,96c-.24,1.55-.39,3-1,2.47h0a29.71,29.71,0,0,0-3-1c-.16,1.73-.32,3.62-1.26,3.06-10.79-3-26-7-36.18-9.94-2.33-.67-6.66-1.94-7.42-3.32A25.22,25.22,0,0,1,83.16,84c-.28-.73-1.14-4-1.25-3.85a20.47,20.47,0,0,1,11.83-6.51c5-1.3,10.75-.9,18.45-.44,11.24.67,18.7-.44,29.4-2l.28,0Z"/><path class="cls-7" d="M9.14,78.29C8.41,79.12,7.6,80,7,80.61,5.06,82.69,5,83.2,5.78,83h0c.13.32,2.26.06,4.82-.44-1,.87-1.52,1.66-.54,1.75h0c.09.23,3.1.4,6.16.33l-1.14.3c-5.53,1.41-6.23,2.62-4.71,2.91h0c.75.44,5.19.61,7.56.09.52,2.55,1.23,7,2.29,7.25a.23.23,0,0,0,.27,0h0a.69.69,0,0,0,.21-.15,31.63,31.63,0,0,0,3.37-3c.24,1.54.38,3,1,2.46h0a28.37,28.37,0,0,1,3-1c.16,1.72.32,3.61,1.26,3.06,10.79-3,26-7,36.17-9.94,2.34-.67,6.67-2,7.43-3.32A26,26,0,0,0,75,80c.28-.73,1.14-4,1.25-3.84a20.49,20.49,0,0,0-11.83-6.52c-5-1.3-10.75-.89-18.45-.44a102.05,102.05,0,0,1-19.81-.68Z"/><path class="cls-8" d="M81.8,51.54c35.57,0,64.41,15.77,64.41,35.23,0,13.36-12.93,22.85-24.35,27.62a6.38,6.38,0,0,0-3.72,1.4h0l.26-.26a4.23,4.23,0,0,0-1.94.2h0a6.76,6.76,0,0,0-1.75,1.21s-2.53.36-2.59.39h0c-1.28.64-2.93.19-4.1,1.35l-3,.78c-.3-.3-4.29.6-5,.91h0a1.14,1.14,0,0,1-.55.19c-.85,0-13.87.46-14.43,1-.21-.21-1.65.07-1.84.17h0l.09,0c-2.12,0-9.38-1.06-11.12-.18h0l.09,0a24,24,0,0,0-3.16-.28c-1.47-.83-7.07-.62-8.76-1.31-.21-.21-7.35-1.71-8.33-2.07-.5-.54-3.3-1.06-4.29-1.55h0a6.67,6.67,0,0,0-.76-.37h0c-3.51-1.23-8.9-2.69-11.59-5.22,0-.27-1-1.1-1.34-1.26h0a2.24,2.24,0,0,0-1.94-.12c-1.64-1.1-3-2.9-4.8-3.9-.26-.52-.36-1.08-.93-1.38-.41-.41-1.28-.42-1.47-.84l0,.07c0-1.19-1-1.64-1.7-2.37l.26.26c0-1.6-1.44-1.89-2.5-2.72a21.58,21.58,0,0,1-3.6-11.64C17.39,67.31,46.23,51.54,81.8,51.54Z"/><path class="cls-9" d="M81.8,44.2c35.57,0,64.41,14.94,64.41,33.37,0,17.44-25.82,31.76-58.72,33.25-2.44-.82-6.07.72-8.42-.23-1.44-.85-3,.86-4.24-.08-1.2-1.6-2.89.55-4.35-.26h0a3.8,3.8,0,0,0-3-.16h0l.09,0a26.14,26.14,0,0,1-6.11-1.3c-1.19-1.31-2.59-.4-3.31-.83l.08-.08c-1.08,0-3-1.67-3.84-.64-1.52-.44-3.45-.32-5-.77-.88-1.5-2.73-.24-3.75-1.3-.33,0-1-.49-1.53-.49-16.2-6.06-26.75-15.93-26.75-27.07C17.39,59.14,46.23,44.2,81.8,44.2Z"/><path class="cls-10" d="M71.17,68.71a2,2,0,0,1-.2-.21h0l-.1-.12h0l-.08-.1,0,0h0a5.2,5.2,0,0,1-.33-.49h0l0,0,0,0-.93-1.51,0-.06,0-.07h0l0,0,0-.07,0-.06,0-.07C66.62,61.56,62,54.9,52.37,55,27,55.28,19.51,69,18.07,79.69a9.89,9.89,0,0,0,.07,2.87c0,.16,0,.33-.07.49-1.25,9.39,12.7,20.19,26.25,21.69,15.23,1.67,36.8-4.95,41.05-15.82A9.27,9.27,0,0,0,86,83.38c1.45-7.26-6.06-9.55-11.38-12.33l-.06,0h0l-.13-.07-.06,0-.07,0-.06,0h0l-.07,0-.24-.14h0l-.07,0-.06,0-.19-.1h0l-.17-.1-.06,0-.06,0h0l-.56-.35,0,0h0l-.52-.36,0,0,0,0-.23-.18h0l-.24-.2h0l-.21-.19,0,0h0Z"/><path class="cls-10" d="M83.92,76.76a1.46,1.46,0,0,0,.2-.22h0l.1-.12h0l.08-.11,0,0h0l.34-.49v0l0,0,0,0,.93-1.51,0-.07,0-.06h0l0-.06,0-.06,0-.07,0-.06C88.47,69.6,93.09,63,102.72,63.06c25.41.27,32.86,14,34.3,24.67a9.61,9.61,0,0,1-.07,2.88c0,.16.05.32.07.49,1.26,9.39-12.69,20.19-26.25,21.68-15.23,1.68-36.8-4.94-41-15.82a9.34,9.34,0,0,1-.65-5.54c-1.44-7.26,6.06-9.54,11.38-12.32l.06,0h0l.13-.07.06,0,.07,0,.06,0h0l.07,0,.25-.13h0l.06,0,.06,0,.19-.11h0l.17-.1.06,0,.06,0h0l.56-.35,0,0h0l.52-.36,0,0h0l.23-.18h0l.23-.19h0l.22-.19h0C83.78,76.89,83.86,76.83,83.92,76.76Z"/><path class="cls-11" d="M66.34,69.44c-2-2-6-13.84-18.8-13.7-25.4.27-32.86,13.95-34.3,24.68C12,89.81,25.94,100.61,39.49,102.1c15.23,1.68,36.8-4.94,41.05-15.82C84.89,75.16,71,74,66.34,69.44Z"/><path class="cls-12" d="M66.34,66.08c-2-2-6-13.84-18.8-13.71-25.4.28-32.86,14-34.3,24.68C12,86.44,25.94,97.25,39.49,98.74c15.23,1.67,36.8-4.95,41.05-15.82C84.89,71.79,71,70.68,66.34,66.08Z"/><path class="cls-13" d="M64.44,67C62.59,65.18,59,54.36,47.28,54.49,24.09,54.74,17.29,67.22,16,77c-1.14,8.57,11.59,18.43,24,19.79,13.9,1.53,33.59-4.51,37.47-14.44C81.38,72.21,68.7,71.2,64.44,67Z"/><path class="cls-14" d="M52.8,68.11c-1.64-2.14-4.14-4.5-8-4.65-12.93-.5-16,6.78-16.16,12.6-.14,5.09,7.54,11.35,14.53,12.51,7.85,1.3,19.7-.87,21.29-6.7.85-3.12-1.9-5.76-3.94-7.09a49.26,49.26,0,0,1,9.43-6.29,15.46,15.46,0,0,1-3.6-2.41,21.49,21.49,0,0,1-2-3.06C60.36,64.92,57,66.76,52.8,68.11Z"/><path class="cls-15" d="M51.57,67c3.55-9.15-5.31-13.43-19.43-5.4-9.81,5.59-10.36,10.93-8,18.2,1.44,4.49,9.82,0,8-3.27-5.45-9.79,13.64-18.83,13.38-8.06C45.42,70.41,50.41,70,51.57,67Z"/><path class="cls-15" d="M62,76.57C75.47,78.42,77.1,85.8,60.44,91c-11.59,3.61-18.77,1.59-27.17-3.07-5.19-2.88,4.32-6.1,7.77-3.51,10.3,7.72,30.47-.12,16.38-4.72C54.93,78.89,57.64,76,62,76.57Z"/><path class="cls-11" d="M92.59,81c2-2,6-13.84,18.8-13.7,25.4.27,32.85,14,34.29,24.67,1.26,9.39-12.69,20.2-26.25,21.69-15.23,1.67-36.79-4.95-41.05-15.82C74,86.68,87.92,85.57,92.59,81Z"/><path class="cls-12" d="M92.59,77.6c2-2,6-13.84,18.8-13.7,25.4.27,32.85,13.95,34.29,24.68,1.26,9.39-12.69,20.19-26.25,21.68-15.23,1.68-36.79-4.94-41.05-15.82C74,83.32,87.92,82.2,92.59,77.6Z"/><path class="cls-13" d="M94.48,78.52C96.33,76.7,99.93,65.89,111.65,66c23.19.25,30,12.74,31.3,22.53,1.15,8.57-11.58,18.44-24,19.8-13.9,1.53-33.59-4.52-37.47-14.45C77.55,83.74,90.22,82.72,94.48,78.52Z"/><path class="cls-14" d="M106.13,79.63c1.64-2.14,4.14-4.5,8-4.65,12.94-.49,16,6.79,16.17,12.61.14,5.09-7.55,11.35-14.54,12.5-7.85,1.31-19.7-.87-21.28-6.7-.85-3.11,1.9-5.75,3.94-7.09A50.63,50.63,0,0,0,89,80a15,15,0,0,0,3.61-2.41,21.24,21.24,0,0,0,2-3C98.57,76.44,101.91,78.29,106.13,79.63Z"/><path class="cls-15" d="M107.36,78.57c-3.55-9.16,5.31-13.43,19.42-5.4,9.81,5.58,10.36,10.93,8,18.19-1.44,4.5-9.82,0-8-3.26,5.46-9.8-13.63-18.84-13.37-8.07C113.51,81.94,108.52,81.55,107.36,78.57Z"/><path class="cls-15" d="M96.91,88.09c-13.46,1.85-15.08,9.24,1.58,14.43,11.58,3.61,18.76,1.59,27.16-3.07,5.2-2.88-4.31-6.09-7.77-3.5-10.29,7.71-30.47-.12-16.38-4.72C104,90.41,101.29,87.49,96.91,88.09Z"/><path class="cls-16" d="M94.8,73.2c5.44,0,9.87-2.3,9.87-5.11S100.24,63,94.8,63s-9.88,2.3-9.88,5.12S89.36,73.2,94.8,73.2Z"/><path class="cls-17" d="M5.17,55.36c8.31-1,15.06-.93,6.81-.55-2.26.1-8.78,8.92-6.46,9.58,2.74.78,7.13.1,8.69-1.22,8.24-7-1.05,2.55-3.13,6.48C9.92,71.84,8,72.49,8.13,72.9c.46,1.07,12.73-4.14,14.32-6.13,3.45-4.31.61-2.53-4.8,2.5-1.76,1.63-5.06,4.13-4.69,5,.24.58,9.83-.26,12.67-1.9,7.2-4.14,2.78-1.26-5.1,2.54-4.62,2.22-7.37,4-6.62,4.5,1.34.82,11.49-.3,9.31-3-.54-.67,1.66,13.82,2.86,12.37a57.83,57.83,0,0,0,5.64-9.19c2,.35-2,8.44-.82,7.64,10.45-7.18,2.26,3.84,4.9,2.46C46.91,83.9,62.65,76.14,73.08,70.58c2.4-1.27,6.84-3.68,7.43-5.79.45-1.63,1.35-3.18,1.65-5.08.17-1.1.54-6,.68-5.77-9.6-10.68-17.61-8.8-31.77-5.95-12,2.41-20.23,1.74-32,.74C12.1,48.15,4.11,48.65,5.17,55.36Z"/><path class="cls-18" d="M5.17,55.36c2-7.06,8.06-4.39,4.76-.9C8.51,56,2.55,61,4.31,63.35c1.05,1.41,2,1.5,3.55.18,8.24-7,3.26,1.84,1.17,5.77-4.13,7.81,1.8,1.31,4-1.46,3.44-4.31,8-4,2.55,1.08-2.92,2.71-6.07,7.93,1.07,3.82s9.7-2,1.81,1.81c-10.55,5.08-3.49,7.12,2.7,1.53.64-.58,4.22,19.59,5.69,10.39.41-2.54-3.06-7.59.69-7,2,.35,2.47,12.55,3.87,6,2.37-11,2.26,6.31,4.37,4.17C43.24,82.17,60.61,75.79,71,70.24c2.4-1.28,6.85-3.69,7.44-5.8.45-1.63,1.34-3.18,1.64-5.07.18-1.1.55-6,.69-5.78-9.6-10.68-17.62-8.8-31.78-6-12,2.41-20.22,1.74-32,.74C10.05,47.8,4.11,48.65,5.17,55.36Z"/><path class="cls-19" d="M11.09,50.09c9.36-1.24,14.8.93,21,1.46,2.29.19,4.87-.32,7.07-.21,1.6.08,3.75-.47.66.23-8.54,1.92-16.25.25-24.34,1.65-3.34.58-6.67,4.77-5.34,2.47C10.94,54.32,12.66,50.81,11.09,50.09Z"/><path class="cls-19" d="M12.91,60.55c3.78-1.92,7.85-2.17,10.55-2.76,5.4-1.2,10.89-2.47,16.2-4,6.1-1.75-5.12,1.89-6.46,2.37C27.93,58,25,58.81,19.85,61c-1,.41-5.81,3-6.54,3.18C12.68,63.08,14,61.27,12.91,60.55Z"/><path class="cls-19" d="M18.44,64.56c4-1.81,7.87-2.35,10.55-3.07,1.19-.32,2.31-.92,3.52-1.3s2.29-.76.43.2c-3.14,1.62-6.25,3.43-9.34,5l-5.88,3C17.16,68.64,19.69,65.49,18.44,64.56Z"/><path class="cls-19" d="M26.64,79.14c1.74-1.27,3.66-2.1,5.43-3.41l12.32-9.12,4-2.87L46,65.81,30.53,79.15C27.42,81.83,30,78.57,26.64,79.14Z"/><path class="cls-19" d="M33.28,81.22c1.42-.79,4.06-1.89,5.24-2.91a57.52,57.52,0,0,1,7.71-5.39c4.27-2.66-4.91,4.43-6.15,5.78A28.42,28.42,0,0,0,37,83.34c-1.14,2-1.33,2-2-.1C34.82,82.49,32.69,81.18,33.28,81.22Z"/><path class="cls-19" d="M21.83,75.92c2.81-2.42,7.24-3.06,9.6-5.7C33,68.47,36,67.94,37.86,67.1S36.41,68.44,36,68.69a78.37,78.37,0,0,0-10.39,9c-.94.93-1.28,2-2-.22C23.45,76.81,21.71,75.9,21.83,75.92Z"/><path class="cls-17" d="M156,53.11c-7.72,0-13.88.76-6.29.22,2.07-.14,9,7.07,6.94,7.91-2.42,1-6.52.84-8.08-.18-8.31-5.43,1.23,2.18,3.56,5.48,1.3,1.84,3.17,2.21,3,2.6-.3,1-12.1-2.36-13.77-4-3.62-3.5-.82-2.2,4.67,1.73,1.78,1.28,5.07,3.17,4.83,4-.16.55-9,.8-11.81-.36-7-3-2.68-.84,4.95,1.73,4.46,1.51,7.17,2.85,6.54,3.34-1.13.88-10.55.94-8.84-1.68.42-.66,0,12.56-1.29,11.39a52.3,52.3,0,0,1-6.14-7.64c-1.82.53,2.72,7.36,1.57,6.77-10.34-5.34-1.65,3.68-4.23,2.72-10.78-4-26-9.32-36.17-13.2-2.34-.89-6.67-2.58-7.43-4.41A37,37,0,0,1,86,65.16c-.28-1-1.14-5.28-1.25-5.1,7.64-10.59,15.17-9.75,28.44-8.7,11.24.89,18.7-.58,29.4-2.73C148.86,47.37,156.23,47,156,53.11Z"/><path class="cls-18" d="M156,53.11c-2.62-6.12-7.85-3.09-4.46-.31,1.47,1.2,7.46,5.07,6.1,7.38-.8,1.37-1.65,1.55-3.22.53-8.3-5.43-2.79,2-.46,5.3,4.63,6.56-1.5,1.37-3.83-.88-3.61-3.5-7.71-2.7-2.22,1.23,3,2.13,6.42,6.47-.57,3.54s-9.08-.76-1.46,1.81c10.21,3.45,4,6-2.3,1.66-.65-.45-1.76,18-4.09,9.92-.65-2.24,2-7.13-1.38-6.16-1.82.53-.9,11.51-2.89,5.8-3.35-9.61-1.4,5.9-3.56,4.21-7.62-6-24.2-9.85-34.34-13.73C95,72.52,90.64,70.83,89.87,69a37,37,0,0,1-2.05-4.37c-.28-1-1.14-5.28-1.25-5.1,7.64-10.59,15.18-9.75,28.44-8.7,11.24.89,18.7-.58,29.4-2.72C150.7,46.85,156.23,47,156,53.11Z"/><path class="cls-19" d="M150,49c-8.69-.12-13.44,2.4-19.07,3.53-2.08.42-4.5.23-6.49.56-1.45.25-3.49,0-.58.28,8,.82,14.9-1.5,22.46-1.1,3.12.17,6.61,3.57,5.15,1.65C150.59,52.78,148.64,49.82,150,49Z"/><path class="cls-19" d="M149.45,58.58c-3.66-1.32-7.41-1.11-9.95-1.36-5.07-.5-10.23-1.06-15.26-1.87-5.77-.92,4.89,1.16,6.17,1.44,5,1.12,7.76,1.51,12.74,2.91.95.27,5.64,2.1,6.33,2.16C149.93,60.82,148.55,59.33,149.45,58.58Z"/><path class="cls-19" d="M144.82,62.76c-3.81-1.2-7.45-1.27-10-1.63-1.12-.17-2.21-.58-3.36-.8s-2.18-.44-.38.22c3.06,1.13,6.1,2.42,9.09,3.49l5.7,2C146.44,66.28,143.78,63.72,144.82,62.76Z"/><path class="cls-19" d="M138.89,76.69c-1.72-1-3.57-1.49-5.33-2.48l-12.27-6.86-4-2.16,2.44,1.61,15.57,10.31C138.46,79.19,135.72,76.54,138.89,76.69Z"/><path class="cls-19" d="M133,79.26a35.48,35.48,0,0,1-5.1-2.05,52.88,52.88,0,0,0-7.64-4c-4.2-1.93,5,3.45,6.25,4.53a25.87,25.87,0,0,1,3.31,3.84c1.25,1.65,1.43,1.62,1.78-.3C131.76,80.56,133.58,79.16,133,79.26Z"/><path class="cls-19" d="M143,73.3c-2.83-1.87-7-2-9.41-4.09-1.62-1.4-4.38-1.57-6.22-2.12s1.48,1,1.84,1.23a72,72,0,0,1,10.47,6.94c1,.73,1.39,1.62,1.81-.41C141.56,74.27,143.05,73.26,143,73.3Z"/><path class="cls-17" d="M111.77,96.31c-2.84-6.07-6.28-10.55-2.67-4.83,1,1.56-7,10.22-9,9-2.35-1.46-3.67-4.74-2.75-6.42,4.88-9-2.74,1.94-6.72,5.25-2.22,1.85-2.07,3.48-2.69,3.56-1.59.21-1-10.55.72-12.59,3.79-4.41,2.92-1.63-.81,4.44-1.21,2-2.76,5.4-4,5.57-.85.12-4.53-6.72-3.86-9.43,1.71-6.83.23-2.47-.7,4.67-.55,4.17-1.51,6.9-2.47,6.62-1.7-.49-5.31-7.85-.82-7.69,1.12,0-18.46,5.61-17.21,4.11a74.46,74.46,0,0,1,8.93-8.26c-1.45-1.19-9.79,5.44-9.35,4.27,4-10.51-6,.36-5.57-2.09,1.9-10.28,4-24.61,5.9-34.31.45-2.23,1.31-6.39,3.71-7.81,1.86-1.09,3.39-2.44,5.66-3.57,1.32-.65,7.33-3.26,7-3.27,18.39,1.25,20,7.54,23.37,18.42,2.88,9.22,7.82,14.41,14.95,21.85C117.54,88.16,120.87,93.76,111.77,96.31Z"/><path class="cls-18" d="M111.77,96.31c8-4.8,1.61-7.54-1.21-3.63-1.22,1.69-4.66,8.12-8.56,8.09-2.31,0-2.9-.6-2-2.29,4.88-9-4-1.29-8,2-7.91,6.58-2.57-.56-.13-3.4,3.79-4.41,1.08-7.26-2.65-1.19-2,3.28-7.11,7.94-5.41,1.14s-2.27-7.47-3.2-.33c-1.26,9.55-7.36,5.8-3.29-1.07.41-.7-27.1,6.7-16.09,1.24,3-1.51,11.2-1.64,8.52-3.84-1.45-1.19-17.23,4.45-9.59.33,12.87-6.94-9.18,1.55-7.5-.9,5.93-8.66,5.45-23.41,7.36-33.11.45-2.23,1.31-6.38,3.71-7.8,1.86-1.1,3.39-2.45,5.66-3.58,1.31-.65,7.33-3.26,7-3.26,18.39,1.24,20,7.53,23.37,18.41,2.88,9.22,7.81,14.42,15,21.85C119,89.36,120.87,93.76,111.77,96.31Z"/><path class="cls-19" d="M115.57,89.77C112.5,82.9,107,80.3,103.27,76.4c-1.39-1.45-2-3.43-3.25-4.85-.89-1-1.26-2.74-.61-.33,1.78,6.66,7.75,11,10,17.13.92,2.52-2.78,6.8-.49,4.78C110.24,91.94,113.87,89.08,115.57,89.77Z"/><path class="cls-19" d="M101.3,93.64c.58-3.46-1.12-6.32-1.7-8.42a119.42,119.42,0,0,1-2.95-12.81c-.79-4.94.13,4.36.19,5.49.23,4.45.67,6.77.47,11.3,0,.87-1,5.37-.82,5.94C98.19,95,99.86,93.27,101.3,93.64Z"/><path class="cls-19" d="M93.44,91.89c.35-3.54-.91-6.42-1.32-8.57-.18-1,0-2-.09-3s-.16-1.91-.46-.2C91.06,83,90.3,86,89.84,88.82L89,94.22C88.88,94.73,91.64,91.5,93.44,91.89Z"/><path class="cls-19" d="M70.78,93.48c.75-1.78.86-3.47,1.65-5.3l5.51-12.7,1.69-4.09L78.18,74,68.83,90.87C66.94,94.27,69.81,90.92,70.78,93.48Z"/><path class="cls-19" d="M64.82,90c.31-1.34.39-3.64,1.11-4.93a36.39,36.39,0,0,0,3-7.8c1.28-4.16-3.21,5.45-4.32,6.94a34,34,0,0,1-4.4,4.31c-2,1.73-1.85,1.85,1.1,1.27C62.44,89.62,65.17,90.42,64.82,90Z"/><path class="cls-19" d="M77.27,95.14c1.69-3.06.31-6.34,2.5-9.22,1.45-1.9.67-4.13.79-5.82s-1,1.63-1.12,2c-1.23,3.5-4.06,8-6.29,11.33-.72,1.08-1.87,1.81,1.27,1.24A10,10,0,0,1,77.27,95.14Z"/><path class="cls-17" d="M16.14,51.61C16,53.72,14.57,56,14.57,58c0,1.22,2.87.12,4.21.12,1.1,0-.49,5.6.61,5.49,1.9-.18,3.2.22,3.38,2.17.62,6.91,2.49,5.36,6.52,6.11,1.07.19.88,4.5,2.78,3.82,4-1.44,3.08,4.68,3.89,4.14,9.53-6.48,5.07,6.25,10.57,3.35,3.21-1.69,7.16-2.21,10-4.52,3.11-2.53-8.87-17.09-10.68-19.6-3.42-4.73-14.11-15.9-20-15.9-3.08,0-7.14,4.43-11.64,5C16.6,49.69,16.14,51.61,16.14,51.61Z"/><path class="cls-17" d="M55.08,85c2.23.37,4.5-.66,6.45.09,1.13.44,2.53-.28,3.64-.28,2.07,0-1,3.94,1.59,3.09a32.26,32.26,0,0,0,5.52-3.27c1.34-1-.45-.93,1.12,0C74,85,72,87.88,72,88.67s2.44-1,2.71-1.22a14.78,14.78,0,0,1,3.07-1.64c1.49-.15,1-.36,1,1.08,0,.4-.81,2.56-.47,2.9s2.39-1.62,2.62-1.87c.86-1,2-2.37,3.17-1.22a9.66,9.66,0,0,1,1.59,3.65c2.5-1.39,4.61-3.48,6.64-4.49,1.06-.53.74.87.74,1.59s.63,1.63.32,1.8c1.21-.81,1-.29,1.83-1.43.59-.79,2.82-4,3.93-3.36,1.26.71.9,3.82,1.82,4.88.8,1.41,3.13-3,3.6-3.57,1.16-1.39,2.73-3.65,4.86-3.65,1.39,0,1.18.63,2.15,1,5.15,2.12-4.19-6-3.66-6.13-2.22-5.17.23-7.33-5.22-9.5-10.76-4.28-31.88-2-42.43,3C55.06,73,55,79.6,55.08,85Z"/><path class="cls-17" d="M147.64,47.59c-.7,1.64-1.95,3.64-.14,5.6a21.72,21.72,0,0,1,2.16,3c.84,1.38.89,1.9-.21,2.42-.53-.29-.38-.43-1.07-.47-.89,0-6-1.28-3.59,2.16a2.25,2.25,0,0,1,.62,1.69c-1.27,1.64.1.47-.74.47-.64,0-1.55-.41-2.29-.41s-1.65-.35-2.5-.32c-.69.9-2,2.17-1,3.7.23.34,1.9.93,1.68,1.28-.34.56-5.33.25-3.7,1.68,1,.91,2.66,1.61,2.29,3.31l-.47-.14c-9.31-2.72-.31,5-5,2.36-1.49-.84-4.26-2-4,.47.48,5.1,1.29,4.11-4,1.48-2.58-1.29-.56,3.87-2.37,5.13-2.42,1.69-15-.81-12.73-4.32,4.87-7.46,14.09-14,21.35-19.21,3.79-2.72,7.54-7,11.06-9a12.85,12.85,0,0,0,2.41-.79A3.54,3.54,0,0,1,147.64,47.59Z"/><path class="cls-20" d="M81.8,0C127.51,0,147,29.78,148.55,49.61,147,69.43,117.69,85.25,81.8,85.25S16.63,69.43,15.05,49.61C16.63,29.78,36.09,0,81.8,0Z"/><path class="cls-21" d="M84.87.75c32.9-.41,58.26,25.1,59.67,41.49C143.13,58.63,117,71.7,84.87,71.7S26.6,58.63,25.2,42.24C26.6,25.85,52,1.16,84.87.75Z"/><path class="cls-5" d="M90.73,3.93c16.47-.14,29.17,8.64,29.87,14.28-.7,5.64-13.81,10.15-29.87,10.15S61.55,23.85,60.85,18.21C61.55,12.57,74.25,4.07,90.73,3.93Z"/><path class="cls-22" d="M53.39,47.22c2.08,0,3.78-1,3.78-2.15s-1.7-2.14-3.78-2.14-3.79,1-3.79,2.14S51.3,47.22,53.39,47.22Z"/><path class="cls-23" d="M54.22,46.1c2.08,0,3.78-1,3.78-2.14s-1.7-2.14-3.78-2.14-3.78,1-3.78,2.14S52.14,46.1,54.22,46.1Z"/><path class="cls-22" d="M76.16,32.16c1.93.79,3.13,2.32,2.68,3.41s-2.37,1.34-4.31.55-3.13-2.32-2.68-3.41S74.23,31.37,76.16,32.16Z"/><path class="cls-23" d="M77.35,31.44c1.93.79,3.14,2.32,2.69,3.42s-2.38,1.34-4.31.55S72.59,33.09,73,32,75.42,30.65,77.35,31.44Z"/><path class="cls-22" d="M97.09,44.66c1.94-.77,3.87-.5,4.31.6s-.79,2.62-2.73,3.38-3.87.5-4.31-.6S95.15,45.43,97.09,44.66Z"/><path class="cls-23" d="M97.46,43.31c1.94-.76,3.87-.49,4.3.61S101,46.53,99,47.3s-3.87.5-4.31-.6S95.52,44.08,97.46,43.31Z"/><path class="cls-22" d="M114.88,26.4c2.07.33,3.59,1.54,3.4,2.71s-2,1.85-4.07,1.53-3.58-1.54-3.39-2.71S112.82,26.08,114.88,26.4Z"/><path class="cls-23" d="M115.88,25.43c2.07.33,3.59,1.54,3.4,2.71s-2,1.85-4.07,1.53-3.58-1.55-3.39-2.71S113.82,25.1,115.88,25.43Z"/><path class="cls-22" d="M54.28,16.32c1.87-.93,3.81-.83,4.34.23s-.56,2.68-2.43,3.61-3.81.82-4.34-.24S52.41,17.25,54.28,16.32Z"/><path class="cls-23" d="M54.53,15c1.87-.93,3.81-.83,4.34.23s-.56,2.67-2.43,3.61-3.81.82-4.34-.24S52.66,15.88,54.53,15Z"/><path class="cls-22" d="M95.06,23.64c1.8,1.65,2.5,3.82,1.57,4.84s-3.16.51-5-1.14-2.5-3.82-1.57-4.84S93.26,22,95.06,23.64Z"/><path class="cls-23" d="M96.66,23.34c1.81,1.65,2.51,3.82,1.57,4.84s-3.16.51-5-1.14-2.5-3.82-1.56-4.84S94.86,21.69,96.66,23.34Z"/><path class="cls-22" d="M127.72,16.24c1.9.77,3,2.17,2.54,3.11s-2.44,1.09-4.34.32-3-2.17-2.53-3.11S125.83,15.47,127.72,16.24Z"/><path class="cls-23" d="M129,15.66c1.89.77,3,2.16,2.53,3.11s-2.43,1.09-4.33.31-3-2.16-2.53-3.1S127.05,14.89,129,15.66Z"/><path class="cls-22" d="M34.84,25.4c1.89.77,3,2.16,2.53,3.1s-2.44,1.09-4.33.32-3-2.16-2.53-3.11S32.94,24.62,34.84,25.4Z"/><path class="cls-23" d="M36.06,24.81c1.9.77,3,2.17,2.54,3.11s-2.44,1.09-4.33.32-3-2.16-2.54-3.11S34.17,24,36.06,24.81Z"/><path class="cls-22" d="M72.42,5.37c1.32-1.61,3.14-2.31,4.06-1.55s.57,2.66-.75,4.28-3.15,2.3-4.06,1.55S71.09,7,72.42,5.37Z"/><path class="cls-23" d="M72.09,4c1.33-1.61,3.14-2.31,4.06-1.56s.57,2.67-.75,4.28S72.25,9.05,71.34,8.3,70.76,5.63,72.09,4Z"/><path class="cls-22" d="M102.94,3.45c2.06.33,3.58,1.54,3.4,2.71s-2,1.85-4.07,1.53S98.68,6.15,98.87,5,100.88,3.13,102.94,3.45Z"/><path class="cls-23" d="M103.94,2.48c2.06.33,3.58,1.54,3.4,2.71s-2,1.85-4.07,1.53S99.68,5.18,99.87,4,101.88,2.16,103.94,2.48Z"/><path class="cls-22" d="M72.59,20.6c1.88-.81,3.66-.65,4,.37s-.93,2.5-2.81,3.31-3.66.65-4-.37S70.71,21.41,72.59,20.6Z"/><path class="cls-23" d="M73,19.32c1.88-.82,3.67-.65,4,.36s-.93,2.5-2.8,3.32-3.67.65-4-.37S71.15,20.13,73,19.32Z"/><path class="cls-22" d="M105,14.85c2-.28,3.7.37,3.74,1.43s-1.57,2.16-3.6,2.43-3.7-.37-3.74-1.43S102.94,15.12,105,14.85Z"/><path class="cls-23" d="M105.74,13.73c2-.27,3.71.37,3.75,1.44s-1.57,2.15-3.6,2.43-3.71-.37-3.75-1.44S103.72,14,105.74,13.73Z"/><path class="cls-22" d="M129.81,28.57c1.41,1.48,1.87,3.21,1,3.87s-2.67,0-4.08-1.49-1.87-3.22-1-3.88S128.4,27.08,129.81,28.57Z"/><path class="cls-23" d="M131.16,28.54c1.41,1.48,1.88,3.22,1,3.87s-2.67,0-4.08-1.49-1.88-3.21-1-3.87S129.75,27.06,131.16,28.54Z"/><path class="cls-22" d="M54.33,3.24c2-.65,3.87-.45,4.22.46s-1,2.17-2.94,2.83-3.87.45-4.22-.45S52.36,3.9,54.33,3.24Z"/><path class="cls-23" d="M54.79,2.12c2-.65,3.87-.45,4.22.46s-1,2.17-2.94,2.83S52.2,5.87,51.85,5,52.82,2.78,54.79,2.12Z"/><path class="cls-22" d="M39.67,11.32c2.44-.19,4.45.48,4.5,1.49s-1.89,2-4.33,2.18-4.45-.48-4.49-1.5S37.24,11.51,39.67,11.32Z"/><path class="cls-23" d="M40.6,10.29c2.44-.19,4.45.48,4.5,1.49s-1.89,2-4.33,2.18-4.45-.48-4.49-1.5S38.17,10.48,40.6,10.29Z"/><path class="cls-22" d="M81.8,0c44.28,0,63.93,27.94,66.55,47.72-5.06,18-32.88,31.69-66.45,31.69C48,79.41,20,65.42,15.33,47.23,18.2,27.49,37.88,0,81.8,0Z"/><path class="cls-21" d="M84.87.75c32.9-.41,58.26,25.1,59.67,41.49C143.13,58.62,117,71.7,84.87,71.7S26.6,58.62,25.2,42.24C26.6,25.85,52,1.16,84.87.75Z"/><path class="cls-5" d="M90.73,3.93c16.47-.14,29.17,8.64,29.87,14.28-.7,5.65-13.81,10.15-29.87,10.15s-29.18-4.5-29.88-10.15C61.55,12.57,74.25,4.07,90.73,3.93Z"/><path class="cls-22" d="M53.39,42.93c2.08,0,3.78,1,3.78,2.14s-1.7,2.15-3.78,2.15-3.79-1-3.79-2.15S51.3,42.93,53.39,42.93Z"/><path class="cls-23" d="M54.22,41.82c2.09,0,3.78,1,3.78,2.14s-1.69,2.14-3.78,2.14-3.78-1-3.78-2.14S52.13,41.82,54.22,41.82Z"/><path class="cls-22" d="M76.16,32.16c1.93.79,3.13,2.32,2.68,3.41s-2.37,1.34-4.31.55-3.13-2.32-2.68-3.41S74.23,31.37,76.16,32.16Z"/><path class="cls-23" d="M77.35,31.44c1.93.79,3.14,2.32,2.69,3.42s-2.38,1.34-4.31.55S72.59,33.09,73,32,75.42,30.65,77.35,31.44Z"/><path class="cls-22" d="M97.09,44.66c1.94-.77,3.87-.5,4.31.6s-.79,2.62-2.73,3.38-3.87.5-4.31-.6S95.15,45.43,97.09,44.66Z"/><path class="cls-23" d="M97.46,43.31c1.94-.76,3.87-.49,4.3.61S101,46.53,99,47.3s-3.87.5-4.31-.6S95.52,44.08,97.46,43.31Z"/><path class="cls-22" d="M114.88,26.4c2.07.33,3.59,1.54,3.4,2.71s-2,1.85-4.07,1.53-3.58-1.55-3.4-2.71S112.82,26.08,114.88,26.4Z"/><path class="cls-23" d="M115.88,25.43c2.07.33,3.59,1.54,3.4,2.71s-2,1.85-4.07,1.52-3.58-1.54-3.39-2.7S113.82,25.1,115.88,25.43Z"/><path class="cls-22" d="M54.28,16.32c1.87-.93,3.81-.83,4.34.23s-.56,2.68-2.43,3.61-3.81.82-4.34-.24S52.41,17.25,54.28,16.32Z"/><path class="cls-23" d="M54.53,15c1.87-.93,3.81-.83,4.34.23s-.56,2.67-2.43,3.61-3.81.82-4.34-.24S52.66,15.88,54.53,15Z"/><path class="cls-22" d="M95.06,23.64c1.8,1.65,2.5,3.82,1.57,4.84s-3.16.51-5-1.14-2.5-3.82-1.57-4.84S93.26,22,95.06,23.64Z"/><path class="cls-23" d="M96.66,23.34c1.81,1.65,2.51,3.82,1.57,4.84s-3.16.51-5-1.14-2.5-3.82-1.56-4.84S94.86,21.69,96.66,23.34Z"/><path class="cls-22" d="M127.72,16.24c1.9.77,3,2.16,2.54,3.11s-2.44,1.09-4.34.32-3-2.17-2.53-3.11S125.83,15.47,127.72,16.24Z"/><path class="cls-23" d="M129,15.66c1.89.77,3,2.16,2.53,3.11s-2.43,1.09-4.33.32-3-2.17-2.53-3.11S127.05,14.89,129,15.66Z"/><path class="cls-22" d="M34.84,25.4c1.89.77,3,2.16,2.53,3.1s-2.44,1.09-4.33.32-3-2.16-2.53-3.11S32.94,24.62,34.84,25.4Z"/><path class="cls-23" d="M36.06,24.81c1.9.77,3,2.17,2.54,3.11s-2.44,1.09-4.33.32-3-2.16-2.54-3.11S34.17,24,36.06,24.81Z"/><path class="cls-22" d="M72.42,5.37c1.32-1.61,3.14-2.31,4.06-1.55s.57,2.66-.75,4.28-3.15,2.3-4.06,1.55S71.09,7,72.42,5.37Z"/><path class="cls-23" d="M72.09,4c1.33-1.61,3.14-2.31,4.06-1.56s.57,2.67-.75,4.28S72.25,9.05,71.34,8.3,70.76,5.63,72.09,4Z"/><path class="cls-22" d="M102.94,3.45c2.06.33,3.58,1.54,3.4,2.71s-2,1.85-4.07,1.53S98.68,6.15,98.87,5,100.88,3.13,102.94,3.45Z"/><path class="cls-23" d="M103.94,2.48c2.06.33,3.58,1.54,3.4,2.71s-2,1.85-4.07,1.53S99.68,5.18,99.87,4,101.88,2.16,103.94,2.48Z"/><path class="cls-22" d="M72.59,20.6c1.88-.81,3.66-.65,4,.37s-.93,2.5-2.81,3.31-3.66.65-4-.37S70.71,21.41,72.59,20.6Z"/><path class="cls-23" d="M73,19.32c1.88-.82,3.67-.65,4,.36s-.93,2.5-2.8,3.32-3.67.65-4-.37S71.15,20.13,73,19.32Z"/><path class="cls-22" d="M105,14.85c2-.28,3.7.37,3.74,1.43s-1.57,2.16-3.6,2.43-3.7-.37-3.74-1.43S102.94,15.12,105,14.85Z"/><path class="cls-23" d="M105.74,13.73c2-.27,3.71.37,3.75,1.44s-1.57,2.15-3.6,2.43-3.71-.37-3.75-1.44S103.72,14,105.74,13.73Z"/><path class="cls-22" d="M129.81,28.57c1.41,1.48,1.87,3.21,1,3.87s-2.67,0-4.08-1.49-1.87-3.22-1-3.88S128.4,27.08,129.81,28.57Z"/><path class="cls-23" d="M131.16,28.54c1.41,1.48,1.88,3.21,1,3.87s-2.67,0-4.08-1.49-1.88-3.21-1-3.87S129.75,27.06,131.16,28.54Z"/><path class="cls-22" d="M54.33,3.24c2-.65,3.87-.45,4.22.46s-1,2.17-2.94,2.83-3.87.45-4.22-.45S52.36,3.9,54.33,3.24Z"/><path class="cls-23" d="M54.79,2.12c2-.65,3.87-.45,4.22.46s-1,2.17-2.94,2.83S52.2,5.87,51.85,5,52.82,2.78,54.79,2.12Z"/><path class="cls-22" d="M39.67,11.32c2.44-.19,4.45.48,4.5,1.49s-1.89,2-4.33,2.18-4.45-.48-4.49-1.5S37.23,11.51,39.67,11.32Z"/><path class="cls-23" d="M40.6,10.29c2.44-.19,4.45.48,4.5,1.49s-1.89,2-4.33,2.18-4.45-.48-4.49-1.5S38.17,10.48,40.6,10.29Z"/><path class="cls-9" d="M35.76,108.33c.57,0,1-.83,1-1.84s-.46-1.83-1-1.83-1,.82-1,1.83S35.19,108.33,35.76,108.33Z"/><path class="cls-10" d="M35.76,107.27a1.34,1.34,0,1,0-1-1.31A1.2,1.2,0,0,0,35.76,107.27Z"/><path class="cls-9" d="M38.78,111.34c.45,0,.82-.65.82-1.46s-.37-1.46-.82-1.46-.82.66-.82,1.46S38.33,111.34,38.78,111.34Z"/><path class="cls-10" d="M38.78,110.5a1.07,1.07,0,1,0-.82-1A.95.95,0,0,0,38.78,110.5Z"/><path class="cls-9" d="M66.64,116.82c.57,0,1-.82,1-1.84s-.46-1.83-1-1.83-1,.82-1,1.83S66.07,116.82,66.64,116.82Z"/><path class="cls-10" d="M66.64,115.76a1.34,1.34,0,1,0-1-1.31A1.2,1.2,0,0,0,66.64,115.76Z"/><path class="cls-9" d="M96,120.68c.46,0,.82-.65.82-1.45s-.36-1.46-.82-1.46-.82.65-.82,1.46S95.51,120.68,96,120.68Z"/><path class="cls-10" d="M96,119.84a1.06,1.06,0,1,0-.82-1A.94.94,0,0,0,96,119.84Z"/><ellipse class="cls-24" cx="63.33" cy="115.57" rx="0.82" ry="1.46"/><path class="cls-10" d="M63.33,116.19a1.07,1.07,0,1,0-.82-1A.95.95,0,0,0,63.33,116.19Z"/><path class="cls-9" d="M91.58,116.43c.45,0,.82-.66.82-1.46s-.37-1.46-.82-1.46-.82.65-.82,1.46S91.13,116.43,91.58,116.43Z"/><path class="cls-10" d="M91.58,115.58a1.06,1.06,0,1,0-.82-1A.95.95,0,0,0,91.58,115.58Z"/><path class="cls-9" d="M59,115.05c.77,0,1.41-1.13,1.41-2.52S59.76,110,59,110s-1.42,1.13-1.42,2.51S58.21,115.05,59,115.05Z"/><path class="cls-10" d="M59,113.6a1.84,1.84,0,1,0-1.42-1.79A1.65,1.65,0,0,0,59,113.6Z"/><path class="cls-9" d="M52.9,115.32c.46,0,.83-.65.83-1.46s-.37-1.46-.83-1.46-.82.66-.82,1.46S52.45,115.32,52.9,115.32Z"/><path class="cls-10" d="M52.9,114.48a1.07,1.07,0,1,0-.82-1A1,1,0,0,0,52.9,114.48Z"/><path class="cls-9" d="M86.43,115.55c.57,0,1-.82,1-1.84s-.47-1.83-1-1.83-1,.82-1,1.83S85.87,115.55,86.43,115.55Z"/><path class="cls-10" d="M86.43,114.49a1.34,1.34,0,1,0-1-1.31A1.2,1.2,0,0,0,86.43,114.49Z"/><path class="cls-9" d="M79,120.94c.57,0,1-.82,1-1.84s-.46-1.83-1-1.83-1,.82-1,1.83S78.41,120.94,79,120.94Z"/><path class="cls-10" d="M79,119.88a1.34,1.34,0,1,0-1-1.3A1.19,1.19,0,0,0,79,119.88Z"/><path class="cls-25" d="M60.41,122.27c4.53,2.61,8.86,5.59,13.59,7.83,4.1,2,7.66,1.75,10.16.29,4.71-2.74,7.44-4.95,12-7.43C84.56,126.06,73.79,126,60.41,122.27Z"/></g></g></svg>